<?xml version="1.0" encoding="UTF-8"?>
<svg version="1.1" xmlns="http://www.w3.org/2000/svg" width="509" height="491">
<path d="M0 0 C0.67160156 0.515625 1.34320313 1.03125 2.03515625 1.5625 C3.27458984 2.49449219 3.27458984 2.49449219 4.5390625 3.4453125 C14.45446101 11.85555662 20.16775323 25.15366381 21.23828125 38 C21.50457264 52.55726278 17.44641682 65.18475674 7.34765625 75.8125 C-0.62020135 83.79411901 -10.90084745 88.74439023 -20.98812866 93.50128174 C-22.89324037 94.40019481 -24.7933023 95.3091438 -26.69262695 96.22021484 C-32.40249337 98.95364864 -38.12777603 101.6491504 -43.890625 104.26953125 C-60.98172693 112.08393698 -76.09103032 121.86786859 -89.96484375 134.5625 C-91.34349609 135.81740234 -91.34349609 135.81740234 -92.75 137.09765625 C-121.59964767 164.61897481 -144.29333655 210.1628369 -146.1418457 250.41699219 C-146.16806631 251.81435642 -146.18820542 253.21184442 -146.203125 254.609375 C-146.21287354 255.37004776 -146.22262207 256.13072052 -146.23266602 256.91444397 C-146.48183365 281.46103753 -145.15665548 305.18437244 -136.96484375 328.5625 C-136.7136377 329.30338867 -136.46243164 330.04427734 -136.20361328 330.80761719 C-118.23892727 383.54656682 -81.45678754 425.1751886 -31.53710938 449.76098633 C-18.68519726 456.12179298 -18.68519726 456.12179298 -16.96484375 459.5625 C-16.44027152 463.49679172 -16.65793672 465.10708957 -18.90234375 468.4375 C-23.56468976 471.67259723 -28.25357894 471.00826159 -33.65258789 470.12060547 C-36.62948246 469.49761253 -39.57645066 468.79888797 -42.52734375 468.0625 C-43.61362061 467.79477783 -44.69989746 467.52705566 -45.8190918 467.2512207 C-109.18201842 451.19195674 -161.43789144 413.44879255 -195.40234375 357.4375 C-219.27192136 317.25260376 -231.17711494 274.50043825 -231.21484375 227.75 C-231.21585083 226.88322632 -231.21685791 226.01645264 -231.21789551 225.12341309 C-231.20736513 211.70708742 -230.52720563 198.76087263 -227.96484375 185.5625 C-227.68337005 183.97399796 -227.4021204 182.38545619 -227.12109375 180.796875 C-221.18932331 148.89720464 -208.23185932 115.77418847 -188.96484375 89.5625 C-188.5270459 88.95921875 -188.08924805 88.3559375 -187.63818359 87.734375 C-173.27604655 67.98218381 -157.70496882 50.11147193 -137.96484375 35.5625 C-137.15015625 34.95277344 -136.33546875 34.34304687 -135.49609375 33.71484375 C-103.24979587 10.35836429 -38.25866311 -27.12752992 0 0 Z " fill="#4CFEBD" transform="translate(233.96484375,15.4375)"/>
<path d="M0 0 C0.98363525 0.26659424 1.96727051 0.53318848 2.98071289 0.80786133 C40.66617391 11.33337996 80.09014241 28.22335787 107.69921875 56.88671875 C109.5120738 58.6995738 111.41898962 60.34318815 113.375 62 C117.46543012 65.54295381 120.89983044 69.42539338 124.375 73.5625 C125.2103125 74.5215625 126.045625 75.480625 126.90625 76.46875 C172.96616489 129.53207084 190.75642762 195.18006503 187.17285156 264.47119141 C183.09114572 318.46522845 157.70819563 370.82112243 120.375 409.5625 C119.78525391 410.17947754 119.19550781 410.79645508 118.58789062 411.43212891 C110.38419525 419.97944587 102.08308504 427.72762397 92.375 434.5625 C91.74352051 435.01657227 91.11204102 435.47064453 90.46142578 435.93847656 C58.918279 458.49216962 16.15849659 479.76761554 -23.625 476.5625 C-36.36888946 474.17894575 -47.24042317 466.85393711 -55.08984375 456.66015625 C-63.06041598 444.81331789 -65.45241723 430.37919755 -63.09375 416.41796875 C-62.40197297 413.72981345 -61.59289324 411.16318706 -60.625 408.5625 C-60.36976563 407.86898438 -60.11453125 407.17546875 -59.8515625 406.4609375 C-50.15271219 384.12688771 -21.74624766 374.66927127 -1.0625 365.875 C24.05674492 355.15567492 45.58850319 338.00745048 62.375 316.5625 C62.8086084 316.01062012 63.2422168 315.45874023 63.68896484 314.89013672 C93.56946785 276.54007895 108.31616182 225.87907434 102.42944336 177.50439453 C100.12270653 160.74073272 96.86649278 144.23136394 90.375 128.5625 C90.07190918 127.82451172 89.76881836 127.08652344 89.45654297 126.32617188 C75.38320408 92.47002566 52.29793591 62.14922572 23.375 39.5625 C22.86324219 39.14774414 22.35148437 38.73298828 21.82421875 38.30566406 C9.39317971 28.25648469 -4.75562191 21.24763729 -19.12158203 14.36669922 C-24.52548824 11.76152352 -24.52548824 11.76152352 -25.625 9.5625 C-26.18425433 2.62774634 -26.18425433 2.62774634 -24.3125 -0.9375 C-17.16333051 -4.92773413 -7.45942721 -2.06783554 0 0 Z " fill="#4DCBFE" transform="translate(316.625,4.4375)"/>
<path d="M0 0 C28.11147544 35.25897296 29.40024998 98.56852066 25.23046875 141.51000977 C22.39618478 165.35030907 15.92028381 190.51169961 5 212 C4.67 212 4.34 212 4 212 C4 210.02 4 208.04 4 206 C4.66 206 5.32 206 6 206 C6 204.68 6 203.36 6 202 C6.66 202 7.32 202 8 202 C8.16435547 200.13794922 8.16435547 200.13794922 8.33203125 198.23828125 C8.49153887 196.59629103 8.6517312 194.95436722 8.8125 193.3125 C8.88275391 192.49587891 8.95300781 191.67925781 9.02539062 190.83789062 C9.50755504 186.07410625 10.30161745 183.04757382 13 179 C13.7689752 176.34944829 13.7689752 176.34944829 14.1875 173.6875 C14.34605469 172.80449219 14.50460937 171.92148437 14.66796875 171.01171875 C14.77753906 170.34785156 14.88710938 169.68398438 15 169 C15.99 168.67 16.98 168.34 18 168 C17.97711411 167.38267502 17.95422821 166.76535004 17.9306488 166.12931824 C17.80342297 160.07678747 18.53946297 154.84154185 19.97265625 148.98828125 C22.42658264 137.84337935 22.57369535 126.91073935 22.46655273 115.5378418 C22.43761837 112.20115003 22.44599514 108.86606078 22.45898438 105.52929688 C23.84580782 82.53183853 23.84580782 82.53183853 18 62 C17.85884839 59.32941149 17.95752893 56.67567762 18 54 C17.34 54 16.68 54 16 54 C15.87882812 53.33613281 15.75765625 52.67226562 15.6328125 51.98828125 C14.67148917 46.61919049 14.67148917 46.61919049 12.875 41.5 C11.45243428 37.43552651 11.85094022 33.26476599 12 29 C11.34 29 10.68 29 10 29 C8.5393715 26.35261084 8 25.10551666 8 22 C7.01 22 6.02 22 5 22 C4.1602972 19.08503169 3.32803997 16.1682814 2.5 13.25 C2.26152344 12.425 2.02304687 11.6 1.77734375 10.75 C1.55175781 9.95078125 1.32617188 9.1515625 1.09375 8.328125 C0.88427734 7.5949707 0.67480469 6.86181641 0.45898438 6.10644531 C0 4 0 4 0 0 Z " fill="#7FD1E9" transform="translate(478,134)"/>
<path d="M0 0 C0.66 0.33 1.32 0.66 2 1 C1.38125 1.556875 0.7625 2.11375 0.125 2.6875 C-2.15668358 4.84913819 -2.15668358 4.84913819 -2.875 7.6875 C-3.24625 8.450625 -3.6175 9.21375 -4 10 C-5.99285937 10.37366113 -7.99363529 10.70740515 -10 11 C-11.09166275 12.93330603 -11.09166275 12.93330603 -12 15 C-12.763125 15.28875 -13.52625 15.5775 -14.3125 15.875 C-17.11362946 17.04756582 -17.86388483 17.81580683 -19.6875 20.125 C-20.8321875 21.548125 -20.8321875 21.548125 -22 23 C-22.66 23 -23.32 23 -24 23 C-25.13702656 26.75505411 -25.33831943 30.54461594 -25.5625 34.4375 C-25.6035083 35.14181152 -25.6445166 35.84612305 -25.68676758 36.57177734 C-26.56768714 49.48044061 -26.56768714 49.48044061 -24 62 C-23.875 64.875 -23.875 64.875 -24 67 C-23.34 67 -22.68 67 -22 67 C-21.67 68.65 -21.34 70.3 -21 72 C-20.34 72 -19.68 72 -19 72 C-18.731875 72.763125 -18.46375 73.52625 -18.1875 74.3125 C-17.04199033 76.90496926 -16.00288478 78.08815544 -14 80 C-14 80.66 -14 81.32 -14 82 C-12.88625 82.37125 -12.88625 82.37125 -11.75 82.75 C-9 84 -9 84 -7.1328125 85.9375 C-0.35901975 92.4879809 9.46236614 92.36035473 18.3125 92.375 C19.25528809 92.37661133 20.19807617 92.37822266 21.16943359 92.37988281 C26.4736805 92.29531555 30.91232338 91.62608551 36 90 C38.09922368 89.67465906 40.20386034 89.38234332 42.3125 89.125 C48.35930662 88.24925559 53.44735308 86.47345181 59 84 C63.21267837 82.33082555 65.61176974 81.70934404 70 83 C67.70189834 85.29810166 66.10891059 85.80691054 63.046875 86.83984375 C62.04245361 87.17951172 61.03803223 87.51917969 60.00317383 87.86914062 C38.25950038 95.00987721 16.02006881 101.44021036 -5.66015625 90.6796875 C-18.6291584 83.52032884 -25.75341002 72.92631714 -30 59 C-32.53032754 48.82874915 -31.63001175 37.75368375 -28 28 C-27.74476563 27.30648438 -27.48953125 26.61296875 -27.2265625 25.8984375 C-22.23294885 14.39938222 -11.03087119 5.5154356 0 0 Z " fill="#71C8E8" transform="translate(284,385)"/>
<path d="M0 0 C1.3357457 3.77371512 0.72408671 6.85831347 0.0625 10.75 C-0.13214844 11.92046875 -0.32679687 13.0909375 -0.52734375 14.296875 C-0.68332031 15.18890625 -0.83929688 16.0809375 -1 17 C-1.66 17 -2.32 17 -3 17 C-3 17.66 -3 18.32 -3 19 C-3.66 19 -4.32 19 -5 19 C-5.12117187 20.30453125 -5.24234375 21.6090625 -5.3671875 22.953125 C-7.93043174 49.93043174 -7.93043174 49.93043174 -10 52 C-11.06888294 59.26646819 -11.14865237 66.61160261 -11.1328125 73.94140625 C-11.13376923 74.94856186 -11.13472595 75.95571747 -11.13571167 76.99339294 C-11.13638747 79.11188825 -11.13457541 81.23038571 -11.13037109 83.34887695 C-11.12505405 86.5301601 -11.1303163 89.71129952 -11.13671875 92.89257812 C-11.48535479 116.1332731 -11.48535479 116.1332731 -8 139 C-7.81050781 139.73734375 -7.62101563 140.4746875 -7.42578125 141.234375 C-7.24402344 141.94078125 -7.06226563 142.6471875 -6.875 143.375 C-6 147 -6 147 -6 151 C-5.01 151 -4.02 151 -3 151 C-1.24836544 154.77222089 -0.77509973 157.666639 -0.875 161.8125 C-0.90207031 163.27623047 -0.90207031 163.27623047 -0.9296875 164.76953125 C-0.96449219 165.87361328 -0.96449219 165.87361328 -1 167 C-0.34 167 0.32 167 1 167 C1.25394531 167.98742187 1.50789063 168.97484375 1.76953125 169.9921875 C2.11658896 171.28661896 2.46427821 172.58088121 2.8125 173.875 C3.14894531 175.15117187 3.48539063 176.42734375 3.83203125 177.7421875 C4.72286659 181.24571468 4.72286659 181.24571468 8 183 C8.94921875 185.27734375 8.94921875 185.27734375 9.6875 187.9375 C9.93886719 188.81277344 10.19023437 189.68804687 10.44921875 190.58984375 C11 193 11 193 11 196 C11.598125 196.20625 12.19625 196.4125 12.8125 196.625 C17.01835811 199.26868224 18.28368741 204.51118246 20 209 C20.66 209 21.32 209 22 209 C22 211.31 22 213.62 22 216 C22.66 216 23.32 216 24 216 C24.495 218.475 24.495 218.475 25 221 C21.88061112 218.12280757 19.85041246 215.31246089 17.828125 211.58984375 C17.2501416 210.52765625 16.6721582 209.46546875 16.07666016 208.37109375 C15.4738623 207.23800781 14.87106445 206.10492188 14.25 204.9375 C13.78312775 204.06206543 13.78312775 204.06206543 13.30682373 203.16894531 C-6.19491072 166.49871741 -15.21655548 127.62919413 -15.25 86.1875 C-15.25100708 85.32072632 -15.25201416 84.45395264 -15.25305176 83.56091309 C-15.24252138 70.14458742 -14.56236188 57.19837263 -12 44 C-11.7185263 42.41149796 -11.43727665 40.82295619 -11.15625 39.234375 C-8.84480192 26.83024038 -5.01826794 14.94290987 -1 3 C-0.67 2.01 -0.34 1.02 0 0 Z " fill="#9AF5D8" transform="translate(18,157)"/>
<path d="M0 0 C9.01746725 0.76419214 9.01746725 0.76419214 13 4 C13 4.99 13 5.98 13 7 C13.70125 7.2475 14.4025 7.495 15.125 7.75 C18.39514548 9.17180238 21.141122 10.87246288 24 13 C24 13.66 24 14.32 24 15 C24.53625 15.2475 25.0725 15.495 25.625 15.75 C30.3660962 18.24531379 33.83908967 20.68966773 37 25 C39.08334635 26.2516467 39.08334635 26.2516467 41 27 C41 27.99 41 28.98 41 30 C41.556875 30.226875 42.11375 30.45375 42.6875 30.6875 C45.66159588 32.37550036 47.72008865 34.46676517 50 37 C50 37.66 50 38.32 50 39 C50.66 39 51.32 39 52 39 C53.65625 40.64453125 53.65625 40.64453125 55.5 42.8125 C56.1084375 43.52019531 56.716875 44.22789063 57.34375 44.95703125 C59.45664535 47.56326774 60.89675493 49.60422724 61.75 52.875 C63.40081003 57.00202506 65.53422905 58.27162712 69 61 C69.33 61.99 69.66 62.98 70 64 C70.9590625 64.185625 70.9590625 64.185625 71.9375 64.375 C72.618125 64.58125 73.29875 64.7875 74 65 C74.70211894 66.65204456 75.36971413 68.31923769 76 70 C77.485 70.495 77.485 70.495 79 71 C78.814375 72.7325 78.814375 72.7325 78.625 74.5 C78.625 79.15906028 80.37191246 81.24748272 83.2734375 84.7265625 C89.07072416 92.36009381 93.74483755 102.3171118 93 112 C92.34 112.66 91.68 113.32 91 114 C90.53851563 112.77667969 90.07703125 111.55335938 89.6015625 110.29296875 C83.15948575 93.53014819 75.54503017 77.60372883 65 63 C64.57525391 62.40155273 64.15050781 61.80310547 63.71289062 61.18652344 C56.23370593 50.68507299 47.98219185 41.23467995 39 32 C38.24847656 31.20851563 37.49695313 30.41703125 36.72265625 29.6015625 C29.27216292 21.89205407 20.73676446 15.468351 12.125 9.125 C11.49456787 8.66053467 10.86413574 8.19606934 10.21459961 7.7175293 C7.54124768 5.76961313 4.89842184 3.93937643 2.0546875 2.2421875 C1.37664062 1.83226563 0.69859375 1.42234375 0 1 C0 0.67 0 0.34 0 0 Z " fill="#76D1EC" transform="translate(320,29)"/>
<path d="M0 0 C0.33 0 0.66 0 1 0 C0.68588899 2.66994355 0.34718639 5.33424703 0 8 C-0.12246094 9.02609375 -0.24492187 10.0521875 -0.37109375 11.109375 C-1.18488773 17.2452376 -2.30095674 22.39560489 -5.05859375 27.94140625 C-6.01895013 30.04143866 -6.56380103 31.99956849 -7.0625 34.25 C-7.95862264 37.83449055 -8.97620285 39.96430428 -11 43 C-11.86625 44.546875 -11.86625 44.546875 -12.75 46.125 C-17.02436948 53.62961818 -21.81663634 60.83712525 -26.73828125 67.9296875 C-28.10676203 70.03338411 -28.10676203 70.03338411 -29.02734375 72.69921875 C-30 75 -30 75 -32.25 75.9375 C-33.1575 76.288125 -34.065 76.63875 -35 77 C-38.04673529 79.44038256 -40.50889555 81.75211164 -41.953125 85.421875 C-45.37869077 93.85796981 -54.05695774 100.37621007 -62.203125 103.97265625 C-64.34845349 104.93432648 -64.34845349 104.93432648 -65 108 C-65.9590625 108.2165625 -65.9590625 108.2165625 -66.9375 108.4375 C-67.618125 108.623125 -68.29875 108.80875 -69 109 C-69.268125 109.61875 -69.53625 110.2375 -69.8125 110.875 C-71.35965318 113.64358991 -73.20299886 114.06322684 -76.078125 115.15625 C-78.1031399 116.04528093 -79.67286164 117.10997389 -81.4375 118.4375 C-87.72216419 123.0985093 -94.55881059 125.72630324 -102 128 C-102 128.66 -102 129.32 -102 130 C-105.39464446 132.08901197 -108.04841529 132.34361606 -112 132 C-112.66 131.34 -113.32 130.68 -114 130 C-113.34628418 129.70867187 -112.69256836 129.41734375 -112.01904297 129.1171875 C-82.1419446 115.75208494 -56.38879707 100.04693214 -36 74 C-35.5663916 73.44812012 -35.1327832 72.89624023 -34.68603516 72.32763672 C-18.18201798 51.14559664 -6.27333754 26.14507853 0 0 Z " fill="#A1E0F1" transform="translate(415,247)"/>
<path d="M0 0 C3.81271791 3.17726492 7.45516471 6.399999 10.9375 9.9375 C25.96622615 25.08051304 43.39126391 35.82288878 62.42773438 45.19848633 C75.27964649 51.55929298 75.27964649 51.55929298 77 55 C77.52457223 58.93429172 77.30690703 60.54458957 75.0625 63.875 C70.30866992 67.17357598 65.55621789 66.45589685 60.07055664 65.47753906 C56.86419391 64.76989317 53.6829612 63.99372311 50.5 63.1875 C49.42363281 62.92646484 48.34726563 62.66542969 47.23828125 62.39648438 C41.04606678 60.86917204 35.01989206 59.10569754 29 57 C33.01440218 55.80560087 35.67579034 56.41894758 39.75 57.4375 C40.92046875 57.72496094 42.0909375 58.01242187 43.296875 58.30859375 C44.18890625 58.53675781 45.0809375 58.76492188 46 59 C46 59.66 46 60.32 46 61 C51.94 61 57.88 61 64 61 C64.99 58.03 64.99 58.03 66 55 C69 55 69 55 71 56 C70.67 55.34 70.34 54.68 70 54 C67.47266765 53.34444881 67.47266765 53.34444881 65 53 C65 52.34 65 51.68 65 51 C62.03 50.67 59.06 50.34 56 50 C55.79761719 49.08605469 55.59523437 48.17210937 55.38671875 47.23046875 C53.59837843 43.06439145 51.83080858 42.29622196 47.8125 40.3125 C46.05486328 39.43078125 46.05486328 39.43078125 44.26171875 38.53125 C40.86759812 36.93784247 37.45624804 35.45162418 34 34 C29.7709316 31.95059519 26.96995903 30.394524 25 26 C23.67696283 25.6278958 22.34262065 25.29369827 21 25 C20.34 24.01 19.68 23.02 19 22 C17.845 21.731875 16.69 21.46375 15.5 21.1875 C14.345 20.795625 13.19 20.40375 12 20 C10.75 17.0625 10.75 17.0625 10 14 C8.89350331 11.97521537 8.89350331 11.97521537 7 11 C3.85078091 11.23283149 3.85078091 11.23283149 1 12 C1.20625 11.13375 1.4125 10.2675 1.625 9.375 C2.04047622 5.63571398 1.39666276 3.45057859 0 0 Z " fill="#4FFAC1" transform="translate(140,420)"/>
<path d="M0 0 C0.98363525 0.26659424 1.96727051 0.53318848 2.98071289 0.80786133 C34.13930255 9.51043009 65.77328775 22.4011516 91.375 42.5625 C91.375 42.8925 91.375 43.2225 91.375 43.5625 C86.57730335 43.09213758 83.35721594 42.29316236 79.375 39.5625 C78.715 39.2325 78.055 38.9025 77.375 38.5625 C77.375 37.9025 77.375 37.2425 77.375 36.5625 C76.75625 36.43875 76.1375 36.315 75.5 36.1875 C73.375 35.5625 73.375 35.5625 71.375 33.5625 C69.30625966 32.9199765 69.30625966 32.9199765 67.375 32.5625 C67.375 31.5725 67.375 30.5825 67.375 29.5625 C66.48748047 29.52382813 66.48748047 29.52382813 65.58203125 29.484375 C60.38870571 29.11160775 57.05385646 28.59737483 53.375 24.5625 C53.375 23.5725 53.375 22.5825 53.375 21.5625 C51.51875 21.624375 51.51875 21.624375 49.625 21.6875 C46.39259932 21.67605787 43.99218552 21.65624842 41.375 19.5625 C40.625 17.4375 40.625 17.4375 40.375 15.5625 C39.570625 15.43875 38.76625 15.315 37.9375 15.1875 C26.41764746 13.16647324 26.41764746 13.16647324 21.1875 10.6875 C13.56864892 7.1115769 5.26571393 5.14124223 -2.9375 3.375 C-6.625 2.5625 -6.625 2.5625 -7.625 1.5625 C-9.57922866 1.41082852 -11.54009729 1.34070004 -13.5 1.3125 C-14.56992187 1.28671875 -15.63984375 1.2609375 -16.7421875 1.234375 C-19.61647203 1.32690708 -19.61647203 1.32690708 -21.52734375 2.91015625 C-22.91270505 4.60970464 -22.91270505 4.60970464 -22.3125 7.25 C-22.085625 8.013125 -21.85875 8.77625 -21.625 9.5625 C-19.645 10.2225 -17.665 10.8825 -15.625 11.5625 C-15.625 12.2225 -15.625 12.8825 -15.625 13.5625 C-14.635 13.8925 -13.645 14.2225 -12.625 14.5625 C-12.625 15.2225 -12.625 15.8825 -12.625 16.5625 C-17.0854936 15.42551143 -20.84517858 14.23060924 -24.625 11.5625 C-26.23313266 8.34623469 -26.07992615 5.05026713 -25.625 1.5625 C-21.32745928 -6.62329185 -7.1226454 -1.97447591 0 0 Z " fill="#73C9EA" transform="translate(316.625,4.4375)"/>
<path d="M0 0 C1.42083105 3.44931312 0.59381937 6.03441915 -0.3359375 9.52954102 C-8.09442917 39.77947182 -4.2076077 76.8691114 6 106 C6.25120605 106.74088867 6.50241211 107.48177734 6.76123047 108.24511719 C12.08633198 123.87802389 18.35070425 139.48844761 27.8828125 153.06640625 C28.43582031 154.02353516 28.43582031 154.02353516 29 155 C28.67 155.66 28.34 156.32 28 157 C25 156 25 156 23.83203125 154.22265625 C23.49558594 153.50980469 23.15914062 152.79695312 22.8125 152.0625 C22.46832031 151.35222656 22.12414062 150.64195312 21.76953125 149.91015625 C21 148 21 148 21 146 C20.01 146 19.02 146 18 146 C17.7525 144.7625 17.505 143.525 17.25 142.25 C16.52993407 139.30287301 16.22824187 138.22110932 14 136.0625 C11.31642501 133.29506329 11.09943259 130.75365732 10.4921875 127.0234375 C10.13400046 124.78736917 10.13400046 124.78736917 8 123 C7.38161448 120.41909933 6.98346569 117.83460345 6.5625 115.21484375 C6.2840625 114.11849609 6.2840625 114.11849609 6 113 C5.34 112.67 4.68 112.34 4 112 C4 111.34 4 110.68 4 110 C3.34 110 2.68 110 2 110 C1.72285156 108.86820312 1.44570312 107.73640625 1.16015625 106.5703125 C0.79439512 105.08851098 0.42850289 103.60674182 0.0625 102.125 C-0.21110352 101.00544922 -0.21110352 101.00544922 -0.49023438 99.86328125 C-1.45209692 95.82960875 -1.45209692 95.82960875 -3 92 C-3.20758661 89.53779216 -3.37387758 87.09139397 -3.5 84.625 C-3.67655811 79.79716958 -3.67655811 79.79716958 -4.51147461 75.05908203 C-5.05063273 72.78658847 -5.11342466 70.78685035 -5.09765625 68.453125 C-5.09443359 67.60878906 -5.09121094 66.76445312 -5.08789062 65.89453125 C-5.07951172 65.02183594 -5.07113281 64.14914062 -5.0625 63.25 C-5.05798828 62.36183594 -5.05347656 61.47367187 -5.04882812 60.55859375 C-5.037074 58.37232671 -5.02064249 56.18619821 -5 54 C-5.66 54 -6.32 54 -7 54 C-7.23105878 41.1460221 -7.03996736 28.71336798 -5 16 C-4.34 16 -3.68 16 -3 16 C-2.95101562 15.34773437 -2.90203125 14.69546875 -2.8515625 14.0234375 C-2.42757771 9.06720147 -1.84334427 4.66980549 0 0 Z " fill="#87EECB" transform="translate(91,238)"/>
<path d="M0 0 C9.92553477 3.63298908 16.79199532 10.9569069 22 20 C28.32904397 34.65260055 29.9339027 47.63548932 25 63 C21.52676103 71.56273767 16.0675953 78.0880356 9 84 C7.515 84.495 7.515 84.495 6 85 C6 84.34 6 83.68 6 83 C7.485 82.01 7.485 82.01 9 81 C9.33 80.01 9.66 79.02 10 78 C10.99 78 11.98 78 13 78 C13.33 76.02 13.66 74.04 14 72 C14.99 72 15.98 72 17 72 C17.13325684 71.40993164 17.26651367 70.81986328 17.40380859 70.21191406 C18 68 18 68 19.5390625 64.609375 C21.79791492 58.66097192 21.43498595 52.5285299 21.375 46.25 C21.38660156 45.05117188 21.39820313 43.85234375 21.41015625 42.6171875 C21.38430186 34.67127147 20.30201441 27.60346444 18 20 C17.34 20 16.68 20 16 20 C15.938125 19.401875 15.87625 18.80375 15.8125 18.1875 C15.17520477 15.74165425 15.17520477 15.74165425 12.5 14.625 C10 13 10 13 9.1875 9.8125 C9.125625 8.884375 9.06375 7.95625 9 7 C7.68 7 6.36 7 5 7 C4.731875 6.401875 4.46375 5.80375 4.1875 5.1875 C3.01506533 3.02775192 1.80630718 1.64209744 0 0 Z " fill="#5EF3BD" transform="translate(227,12)"/>
<path d="M0 0 C0.66 0.33 1.32 0.66 2 1 C0.625 3.5 0.625 3.5 -1 6 C-1.66 6 -2.32 6 -3 6 C-3.2475 6.639375 -3.495 7.27875 -3.75 7.9375 C-5 10 -5 10 -7.0625 10.625 C-7.701875 10.74875 -8.34125 10.8725 -9 11 C-9.33 11.66 -9.66 12.32 -10 13 C-9.34 13 -8.68 13 -8 13 C-8 14.65 -8 16.3 -8 18 C-10.66666667 17.33333333 -13.33333333 16.66666667 -16 16 C-16.495 18.475 -16.495 18.475 -17 21 C-17.94875 21.061875 -18.8975 21.12375 -19.875 21.1875 C-20.90625 21.455625 -21.9375 21.72375 -23 22 C-23.71727778 23.64551962 -24.38325228 25.31422289 -25 27 C-26.66666667 27.66666667 -28.33333333 28.33333333 -30 29 C-31.10636395 31.39068734 -31.10636395 31.39068734 -32 34 C-33.33333333 35.33333333 -34.66666667 36.66666667 -36 38 C-36.12375 38.66 -36.2475 39.32 -36.375 40 C-37.38652015 43.23686448 -40.24268028 44.21923101 -43 46 C-43.33 46.99 -43.66 47.98 -44 49 C-44.845625 49.78375 -45.69125 50.5675 -46.5625 51.375 C-49.25910691 53.74267016 -49.25910691 53.74267016 -49.25 56.75 C-49.12625 57.86375 -49.12625 57.86375 -49 59 C-50 60 -50 60 -52.5625 60.0625 C-53.366875 60.041875 -54.17125 60.02125 -55 60 C-55.0825 60.7425 -55.165 61.485 -55.25 62.25 C-56.14809799 65.54302595 -57.38416074 66.85976788 -60 69 C-60.66 69 -61.32 69 -62 69 C-60.36629371 64.01083707 -57.46498825 60.09642728 -54.4375 55.875 C-53.89955811 55.12017334 -53.36161621 54.36534668 -52.80737305 53.58764648 C-39.20730458 34.66150752 -23.51853278 18.10609226 -5 4 C-3.32918979 2.67186266 -1.6608857 1.3405276 0 0 Z " fill="#6BF1C4" transform="translate(101,47)"/>
<path d="M0 0 C1.65 0 3.3 0 5 0 C2.24161281 2.98652747 -0.30050373 4.89815359 -3.9375 6.69921875 C-4.90502197 7.18165039 -5.87254395 7.66408203 -6.86938477 8.16113281 C-7.90248779 8.66483398 -8.93559082 9.16853516 -10 9.6875 C-11.60282837 10.47979004 -11.60282837 10.47979004 -13.23803711 11.28808594 C-19.95252257 14.5832821 -26.72333012 17.72340913 -33.5625 20.75 C-45.02474911 25.82529601 -56.0753707 31.19391302 -66.14453125 38.75 C-68 40 -68 40 -70 40 C-70 39.01 -70 38.02 -70 37 C-69.34 37 -68.68 37 -68 37 C-67.67 36.01 -67.34 35.02 -67 34 C-64.53072559 30.77094885 -63.31407952 30.0628159 -59.25 29.25 C-57.64125 29.12625 -57.64125 29.12625 -56 29 C-56 28.34 -56 27.68 -56 27 C-55.38125 26.731875 -54.7625 26.46375 -54.125 26.1875 C-51.7004767 25.04443152 -51.7004767 25.04443152 -50 22 C-47.66836622 21.32741333 -45.3347961 20.66152556 -43 20 C-39.99459597 18.18541644 -37.47882265 16.47882265 -35 14 C-30.64707944 11.61291453 -27.88146607 10.81261636 -23 12 C-22.67 11.34 -22.34 10.68 -22 10 C-21.236875 9.855625 -20.47375 9.71125 -19.6875 9.5625 C-16.95017811 9.2022883 -16.95017811 9.2022883 -15.0625 7.4375 C-12.30270285 5.51400502 -10.28644085 5.77592449 -7 6 C-7 5.34 -7 4.68 -7 4 C-6.030625 3.71125 -5.06125 3.4225 -4.0625 3.125 C-0.89335797 2.35785318 -0.89335797 2.35785318 0 0 Z " fill="#61F2C0" transform="translate(228,97)"/>
<path d="M0 0 C3.81271791 3.17726492 7.45516471 6.399999 10.9375 9.9375 C23.07392264 22.16621483 36.86598601 31.85091554 52 40 C53.25536328 40.68200654 54.51057004 41.36430125 55.765625 42.046875 C58.83642434 43.71175637 61.91558959 45.36044629 65 47 C65 47.33 65 47.66 65 48 C62.69 48 60.38 48 58 48 C58 47.34 58 46.68 58 46 C57.01 46 56.02 46 55 46 C54.484375 45.443125 53.96875 44.88625 53.4375 44.3125 C48.94261628 40.04812314 42.9883279 37.80028809 37.3125 35.4375 C27.27867528 31.08319871 27.27867528 31.08319871 25 26 C23.67696283 25.6278958 22.34262065 25.29369827 21 25 C20.34 24.01 19.68 23.02 19 22 C17.845 21.731875 16.69 21.46375 15.5 21.1875 C14.345 20.795625 13.19 20.40375 12 20 C10.75 17.0625 10.75 17.0625 10 14 C8.89350331 11.97521537 8.89350331 11.97521537 7 11 C3.85078091 11.23283149 3.85078091 11.23283149 1 12 C1.20625 11.13375 1.4125 10.2675 1.625 9.375 C2.04047622 5.63571398 1.39666276 3.45057859 0 0 Z " fill="#81F7D1" transform="translate(140,420)"/>
<path d="M0 0 C0.66 0.33 1.32 0.66 2 1 C1.32517578 1.71349609 1.32517578 1.71349609 0.63671875 2.44140625 C-20.09863384 25.0051266 -33.59647746 52.70887577 -42 82 C-44 79 -44 79 -43.64453125 76.546875 C-43.36996094 75.62390625 -43.09539062 74.7009375 -42.8125 73.75 C-42.51988281 72.76515625 -42.22726563 71.7803125 -41.92578125 70.765625 C-40.80642237 67.42171745 -39.38875392 64.24042581 -38 61 C-37.15969725 58.13096631 -36.39133091 55.25115543 -35.6484375 52.35546875 C-35 50 -35 50 -34 48 C-33.01 48 -32.02 48 -31 48 C-30.731875 47.154375 -30.46375 46.30875 -30.1875 45.4375 C-28.9521405 41.86145933 -27.523012 38.46139092 -26 35 C-25.34 35 -24.68 35 -24 35 C-23.896875 34.113125 -23.79375 33.22625 -23.6875 32.3125 C-22.98284093 28.9173245 -22.0445434 26.78057902 -20 24 C-19.34 24 -18.68 24 -18 24 C-18 22.68 -18 21.36 -18 20 C-17.01 20 -16.02 20 -15 20 C-15 17.36 -15 14.72 -15 12 C-15.99 12 -16.98 12 -18 12 C-18 10.68 -18 9.36 -18 8 C-17.40832031 8.13019531 -16.81664063 8.26039063 -16.20703125 8.39453125 C-13.73594229 8.82586326 -11.5090758 9.1013768 -9 9 C-6.08333333 6.91666667 -6.08333333 6.91666667 -4 4 C-2.66666667 2.66666667 -1.33333333 1.33333333 0 0 Z " fill="#96F5D6" transform="translate(135,156)"/>
<path d="M0 0 C1.98 0.99 1.98 0.99 4 2 C4 2.66 4 3.32 4 4 C4.66 4 5.32 4 6 4 C6.13277344 5.22976562 6.26554687 6.45953125 6.40234375 7.7265625 C6.58064043 9.35938469 6.7590308 10.99219666 6.9375 12.625 C7.02451172 13.43324219 7.11152344 14.24148437 7.20117188 15.07421875 C7.78757838 20.41703355 8.55330718 25.68086878 9.5703125 30.9609375 C13.20707097 53.34492975 10.21756551 77.58548054 8 100 C7.34 100 6.68 100 6 100 C5.34 100.99 4.68 101.98 4 103 C4.47111458 98.43064592 4.9869986 93.90055206 5.75390625 89.37109375 C10.37741022 61.63850186 7.23011552 35.8026407 1.51904297 8.54882812 C0.94085477 5.70955965 0.43947918 2.86402165 0 0 Z " fill="#81CFE7" transform="translate(412,144)"/>
<path d="M0 0 C0 4.54412362 -2.65819998 6.46260619 -5.63671875 9.7109375 C-9.62239464 13.5714434 -14.11783934 16.72755673 -19.203125 18.97265625 C-21.34845349 19.93432648 -21.34845349 19.93432648 -22 23 C-22.9590625 23.2165625 -22.9590625 23.2165625 -23.9375 23.4375 C-24.618125 23.623125 -25.29875 23.80875 -26 24 C-26.268125 24.61875 -26.53625 25.2375 -26.8125 25.875 C-28.35965318 28.64358991 -30.20299886 29.06322684 -33.078125 30.15625 C-35.1031399 31.04528093 -36.67286164 32.10997389 -38.4375 33.4375 C-44.72216419 38.0985093 -51.55881059 40.72630324 -59 43 C-59 43.66 -59 44.32 -59 45 C-62.39464446 47.08901197 -65.04841529 47.34361606 -69 47 C-69.66 46.34 -70.32 45.68 -71 45 C-70.01942627 44.56300781 -70.01942627 44.56300781 -69.01904297 44.1171875 C-48.68316179 35.02021516 -30.62392982 25.41420948 -13.5078125 10.98046875 C-11 9 -11 9 -8.38671875 7.4375 C-6.12165951 6.07327447 -4.5049191 4.71445022 -2.6875 2.8125 C-1.3571875 1.4203125 -1.3571875 1.4203125 0 0 Z " fill="#75CCE9" transform="translate(372,332)"/>
<path d="M0 0 C2.99026553 1.0252339 5.04196679 2.0346226 7.5 4.0625 C9.84185898 6.18266952 9.84185898 6.18266952 12.6875 6.5 C13.450625 6.665 14.21375 6.83 15 7 C15.28230469 7.61359375 15.56460938 8.2271875 15.85546875 8.859375 C17.32976322 11.61675852 18.87060482 12.33345391 21.625 13.75 C22.44226563 14.17796875 23.25953125 14.6059375 24.1015625 15.046875 C24.72804688 15.36140625 25.35453125 15.6759375 26 16 C26 16.66 26 17.32 26 18 C27.45792884 18.05399736 28.91642712 18.09279177 30.375 18.125 C31.18710938 18.14820313 31.99921875 18.17140625 32.8359375 18.1953125 C35.21342243 18.21370051 35.21342243 18.21370051 37 16 C37.99 16.33 38.98 16.66 40 17 C38.68 18.65 37.36 20.3 36 22 C38.64 22.66 41.28 23.32 44 24 C44 24.99 44 25.98 44 27 C44.74765625 27.02578125 45.4953125 27.0515625 46.265625 27.078125 C47.25046875 27.13484375 48.2353125 27.1915625 49.25 27.25 C50.71179688 27.31960938 50.71179688 27.31960938 52.203125 27.390625 C55.63892629 28.1392074 56.57237258 29.53502447 59 32 C62.01688359 33.11477169 62.01688359 33.11477169 65.25 33.75 C66.32765625 33.99234375 67.4053125 34.2346875 68.515625 34.484375 C69.33546875 34.65453125 70.1553125 34.8246875 71 35 C71 35.99 71 36.98 71 38 C72.32 38.66 73.64 39.32 75 40 C53.43051386 37.02151254 30.24906231 23.87056953 13 11 C12.3807666 10.54254395 11.7615332 10.08508789 11.12353516 9.61376953 C7.35488184 6.81680466 3.60340173 4.00789858 0 1 C0 0.67 0 0.34 0 0 Z " fill="#7DF1CA" transform="translate(94,436)"/>
<path d="M0 0 C0.66 0.33 1.32 0.66 2 1 C1.38125 1.556875 0.7625 2.11375 0.125 2.6875 C-2.15668358 4.84913819 -2.15668358 4.84913819 -2.875 7.6875 C-3.24625 8.450625 -3.6175 9.21375 -4 10 C-5.99285937 10.37366113 -7.99363529 10.70740515 -10 11 C-11.09166275 12.93330603 -11.09166275 12.93330603 -12 15 C-12.763125 15.28875 -13.52625 15.5775 -14.3125 15.875 C-17.11362946 17.04756582 -17.86388483 17.81580683 -19.6875 20.125 C-20.8321875 21.548125 -20.8321875 21.548125 -22 23 C-22.66 23 -23.32 23 -24 23 C-24.66 26.96 -25.32 30.92 -26 35 C-26.66 35 -27.32 35 -28 35 C-28.66 41.27 -29.32 47.54 -30 54 C-30.33 54 -30.66 54 -31 54 C-31.33560276 44.78956858 -31.25491063 36.74580335 -28 28 C-27.74476563 27.30648438 -27.48953125 26.61296875 -27.2265625 25.8984375 C-22.23294885 14.39938222 -11.03087119 5.5154356 0 0 Z " fill="#57C7EF" transform="translate(284,385)"/>
<path d="M0 0 C0.66 0.99 1.32 1.98 2 3 C-12.77331693 13.88363348 -27.99744633 22.68993513 -44.5 30.6875 C-45.41491211 31.13432129 -46.32982422 31.58114258 -47.27246094 32.04150391 C-48.12098633 32.4441748 -48.96951172 32.8468457 -49.84375 33.26171875 C-50.59849609 33.62225342 -51.35324219 33.98278809 -52.13085938 34.35424805 C-52.74767578 34.56734619 -53.36449219 34.78044434 -54 35 C-54.66 34.67 -55.32 34.34 -56 34 C-54.6875 32.5 -54.6875 32.5 -53 31 C-52.01 31 -51.02 31 -50 31 C-50 30.34 -50 29.68 -50 29 C-48.783125 28.5875 -47.56625 28.175 -46.3125 27.75 C-43.45000891 26.69539802 -41.83323292 25.86170535 -39.4375 23.875 C-36.34144378 21.49341829 -33.83849604 21.30105851 -30 21 C-29.896875 20.38125 -29.79375 19.7625 -29.6875 19.125 C-29 17 -29 17 -26 15 C-23.35982365 14.18220159 -20.69729409 13.6190511 -18 13 C-18 12.34 -18 11.68 -18 11 C-16.906875 10.731875 -15.81375 10.46375 -14.6875 10.1875 C-11.16076366 9.05177135 -10.29591408 8.60899328 -8 6 C-5.31978272 4.25785877 -3.04017238 3.01339079 0 2 C0 1.34 0 0.68 0 0 Z " fill="#6EC7E8" transform="translate(411,433)"/>
<path d="M0 0 C3.20718282 1.60359141 3.416166 4.45129559 4.5625 7.75 C4.99691406 8.98234375 5.43132812 10.2146875 5.87890625 11.484375 C9.96120195 24.28599916 8.41727246 37.67713549 2.4375 49.6875 C-1.26002801 56.01417481 -6.85668295 63.61889432 -14 66 C-14 65.34 -14 64.68 -14 64 C-13.01 63.34 -12.02 62.68 -11 62 C-10.67 61.01 -10.34 60.02 -10 59 C-9.01 59 -8.02 59 -7 59 C-6.505 56.03 -6.505 56.03 -6 53 C-5.01 53 -4.02 53 -3 53 C-2.9175 52.484375 -2.835 51.96875 -2.75 51.4375 C-1.67859775 47.95544268 0.13523605 45.12799115 2 42 C2.66 42 3.32 42 4 42 C4.09969463 37.87417603 4.17185233 33.74882903 4.21972656 29.62207031 C4.2397063 28.22155527 4.2669002 26.82112218 4.30175781 25.42089844 C4.49983767 17.25301727 4.30933715 11.12567561 0 4 C0 2.68 0 1.36 0 0 Z " fill="#89F1D0" transform="translate(247,31)"/>
<path d="M0 0 C9.01746725 0.76419214 9.01746725 0.76419214 13 4 C13 4.99 13 5.98 13 7 C13.70125 7.2475 14.4025 7.495 15.125 7.75 C18.39514548 9.17180238 21.141122 10.87246288 24 13 C24 13.66 24 14.32 24 15 C24.53625 15.2475 25.0725 15.495 25.625 15.75 C30.3660962 18.24531379 33.83908967 20.68966773 37 25 C39.08334635 26.2516467 39.08334635 26.2516467 41 27 C41 27.99 41 28.98 41 30 C41.59296875 30.25523438 42.1859375 30.51046875 42.796875 30.7734375 C45.21224538 32.11816498 46.51211706 33.49214367 48.25 35.625 C48.77078125 36.25664063 49.2915625 36.88828125 49.828125 37.5390625 C50.40820312 38.26222656 50.40820312 38.26222656 51 39 C48 39 48 39 45.73828125 37.1015625 C44.93777344 36.28429687 44.13726562 35.46703125 43.3125 34.625 C42.50425781 33.81289063 41.69601562 33.00078125 40.86328125 32.1640625 C39 30 39 30 39 28 C38.071875 27.566875 38.071875 27.566875 37.125 27.125 C35 26 35 26 33 24 C32.22398437 23.71125 31.44796875 23.4225 30.6484375 23.125 C27.6204939 21.83879387 25.96575547 20.29968959 23.625 18 C18.79066744 13.49378956 13.63736882 9.91206636 8.09033203 6.36328125 C2.32861971 2.66373473 2.32861971 2.66373473 0 0 Z " fill="#82D3E8" transform="translate(320,29)"/>
<path d="M0 0 C3.80848024 1.55160306 6.22296679 4.07680714 9 7 C10.53352116 8.61195523 12.07580683 10.21560072 13.625 11.8125 C14.38039063 12.60269531 15.13578125 13.39289063 15.9140625 14.20703125 C17.92074132 16.32592166 17.92074132 16.32592166 21 16 C22.75390625 17.64453125 22.75390625 17.64453125 24.5625 19.8125 C25.46162109 20.87404297 25.46162109 20.87404297 26.37890625 21.95703125 C28.45442406 24.57268381 29.90059328 26.61894092 30.75 29.875 C32.12082627 33.30206568 33.52853088 34.16676689 36.3984375 36.30859375 C39.87323072 39.9783144 41.57944879 45.21535738 43 50 C42.505 50.99 42.505 50.99 42 52 C41.56171875 51.319375 41.1234375 50.63875 40.671875 49.9375 C29.21965919 32.43330022 16.30524307 16.86406338 1.2578125 2.3203125 C0 1 0 1 0 0 Z " fill="#9CE1F1" transform="translate(351,52)"/>
<path d="M0 0 C-2.29810166 2.29810166 -3.89108941 2.80691054 -6.953125 3.83984375 C-7.95754639 4.17951172 -8.96196777 4.51917969 -9.99682617 4.86914062 C-27.57264536 10.64113198 -42.44545339 13.51791248 -61 13 C-61 12.67 -61 12.34 -61 12 C-59.75863281 11.96261719 -58.51726562 11.92523438 -57.23828125 11.88671875 C-55.59632489 11.8210405 -53.95439913 11.7545938 -52.3125 11.6875 C-51.08756836 11.65366211 -51.08756836 11.65366211 -49.83789062 11.61914062 C-44.91166662 11.39975413 -42.20902529 10.67970099 -38 8 C-35.25118398 7.42350059 -32.58521794 6.95177698 -29.8125 6.5625 C-23.08079 5.50512195 -17.21511738 3.85363366 -11 1 C-6.78732163 -0.66917445 -4.38823026 -1.29065596 0 0 Z " fill="#7DCFE9" transform="translate(354,468)"/>
<path d="M0 0 C3.74840588 2.09803823 6.78846277 4.45977754 9.9375 7.375 C12.63449386 9.85256389 15.31054346 12.29651004 18.1875 14.5625 C21.15864063 17.13748854 23.5978216 19.89948732 26.140625 22.88671875 C28.05461085 25.06206821 30.05906317 27.09401323 32.125 29.125 C35.31358647 32.27636562 38.28139165 35.43182654 41 39 C41 39.66 41 40.32 41 41 C39.35 41 37.7 41 36 41 C36 39.35 36 37.7 36 36 C35.11828125 35.62294922 35.11828125 35.62294922 34.21875 35.23828125 C31.72317825 33.84550617 30.33469485 32.36828502 28.5 30.1875 C27.89414062 29.47464844 27.28828125 28.76179688 26.6640625 28.02734375 C25.37452698 26.45628992 24.11777543 24.85829762 22.875 23.25 C19.94088227 19.72905872 17.02695575 17.44300052 12.8125 15.625 C9.22266402 13.55087255 9.09443279 11.87260833 8 8 C7.01 7.67 6.02 7.34 5 7 C4.67 6.34 4.34 5.68 4 5 C1.98330173 3.86649466 1.98330173 3.86649466 0 3 C0 2.01 0 1.02 0 0 Z " fill="#6FC5E0" transform="translate(408,48)"/>
<path d="M0 0 C0.66 0.33 1.32 0.66 2 1 C0.625 3.5 0.625 3.5 -1 6 C-1.66 6 -2.32 6 -3 6 C-3.2475 6.639375 -3.495 7.27875 -3.75 7.9375 C-5 10 -5 10 -7.0625 10.625 C-7.701875 10.74875 -8.34125 10.8725 -9 11 C-9.33 11.66 -9.66 12.32 -10 13 C-9.34 13 -8.68 13 -8 13 C-8 14.65 -8 16.3 -8 18 C-10.66666667 17.33333333 -13.33333333 16.66666667 -16 16 C-16.33 17.65 -16.66 19.3 -17 21 C-18.423125 21.0928125 -18.423125 21.0928125 -19.875 21.1875 C-20.90625 21.455625 -21.9375 21.72375 -23 22 C-24.15521502 24.47130918 -24.15521502 24.47130918 -25 27 C-27.125 27.8125 -27.125 27.8125 -29 28 C-27.50588759 18.32075004 -13.95591217 10.85268237 -6.58007812 5.21630859 C-4.36167223 3.50862964 -2.17919867 1.75728615 0 0 Z " fill="#71F2C9" transform="translate(101,47)"/>
<path d="M0 0 C14.28160459 1.31627692 26.97945627 11.40799554 38 20 C38 20.33 38 20.66 38 21 C33.20230335 20.52963758 29.98221594 19.73066236 26 17 C25.34 16.67 24.68 16.34 24 16 C24 15.34 24 14.68 24 14 C23.38125 13.87625 22.7625 13.7525 22.125 13.625 C20 13 20 13 18 11 C15.93125966 10.3574765 15.93125966 10.3574765 14 10 C14 9.01 14 8.02 14 7 C13.40832031 6.97421875 12.81664062 6.9484375 12.20703125 6.921875 C6.98794973 6.54725903 3.74812219 5.98993653 0 2 C0 1.34 0 0.68 0 0 Z " fill="#6BC9EA" transform="translate(370,27)"/>
<path d="M0 0 C0.33 0 0.66 0 1 0 C1 1.65 1 3.3 1 5 C0.34 5 -0.32 5 -1 5 C-1.16435547 6.46373047 -1.16435547 6.46373047 -1.33203125 7.95703125 C-1.56986328 9.86548828 -1.56986328 9.86548828 -1.8125 11.8125 C-1.96332031 13.07707031 -2.11414063 14.34164062 -2.26953125 15.64453125 C-2.97869442 18.90213107 -3.28289262 20.15893732 -6 22 C-6.66 22 -7.32 22 -8 22 C-8.268125 22.72058594 -8.53625 23.44117188 -8.8125 24.18359375 C-10.0001361 27.00032278 -11.39399239 29.46478269 -13 32.0625 C-14.80537691 34.99172403 -16.50962629 37.8974432 -18 41 C-19.15605219 37.53184344 -18.89270296 37.1093539 -17.4453125 33.9296875 C-17.08179687 33.12313721 -16.71828125 32.31658691 -16.34375 31.4855957 C-15.9415625 30.62409912 -15.539375 29.76260254 -15.125 28.875 C-14.72023438 27.99223389 -14.31546875 27.10946777 -13.8984375 26.19995117 C-3.24685125 3.24685125 -3.24685125 3.24685125 0 0 Z " fill="#60F1BE" transform="translate(38,116)"/>
<path d="M0 0 C2.92271002 2.92271002 3.73563393 6.60534113 5.0625 10.4375 C9.91250173 23.98226978 15.58682176 37.24922833 23.8828125 49.06640625 C24.43582031 50.02353516 24.43582031 50.02353516 25 51 C24.67 51.66 24.34 52.32 24 53 C21 52 21 52 19.83203125 50.22265625 C19.49558594 49.50980469 19.15914062 48.79695313 18.8125 48.0625 C18.46832031 47.35222656 18.12414062 46.64195312 17.76953125 45.91015625 C17 44 17 44 17 42 C16.01 42 15.02 42 14 42 C13.7525 40.7625 13.505 39.525 13.25 38.25 C12.52993407 35.30287301 12.22824187 34.22110932 10 32.0625 C7.31642501 29.29506329 7.09943259 26.75365732 6.4921875 23.0234375 C6.13400046 20.78736917 6.13400046 20.78736917 4 19 C3.4375 16.79296875 3.4375 16.79296875 3 14.1875 C2.34057451 10.55019273 1.40880647 7.42138714 0 4 C0 2.68 0 1.36 0 0 Z " fill="#95F5D6" transform="translate(95,342)"/>
<path d="M0 0 C1.86591797 0.54140625 1.86591797 0.54140625 3.76953125 1.09375 C0.68329296 1.93268805 -1.60593458 2.11780335 -4.79296875 1.71875 C-5.55738281 1.62851563 -6.32179688 1.53828125 -7.109375 1.4453125 C-9.23046875 1.09375 -9.23046875 1.09375 -12.23046875 0.09375 C-14.22700387 -0.0504442 -16.22894981 -0.1268159 -18.23046875 -0.15625 C-19.28234375 -0.18203125 -20.33421875 -0.2078125 -21.41796875 -0.234375 C-24.23079143 -0.13489983 -24.23079143 -0.13489983 -26.125 1.44140625 C-27.51948538 3.13941845 -27.51948538 3.13941845 -26.91796875 5.78125 C-26.69109375 6.544375 -26.46421875 7.3075 -26.23046875 8.09375 C-24.25046875 8.75375 -22.27046875 9.41375 -20.23046875 10.09375 C-20.23046875 10.75375 -20.23046875 11.41375 -20.23046875 12.09375 C-19.24046875 12.42375 -18.25046875 12.75375 -17.23046875 13.09375 C-17.23046875 13.75375 -17.23046875 14.41375 -17.23046875 15.09375 C-21.69096235 13.95676143 -25.45064733 12.76185924 -29.23046875 10.09375 C-30.83860141 6.87748469 -30.6853949 3.58151713 -30.23046875 0.09375 C-25.1708259 -9.54366495 -7.94822706 -2.24365087 0 0 Z " fill="#76C9E4" transform="translate(321.23046875,5.90625)"/>
<path d="M0 0 C4.51707932 0.5314211 7.38687577 2.29015683 11 5 C12.44430855 7.88861709 12.37688506 9.79647701 12 13 C10.0625 15.875 10.0625 15.875 7 18 C-0.54453424 18.59542278 -7.21192181 17.0335222 -14.5 15.1875 C-15.57636719 14.92646484 -16.65273437 14.66542969 -17.76171875 14.39648438 C-23.95393322 12.86917204 -29.98010794 11.10569754 -36 9 C-31.98559782 7.80560087 -29.32420966 8.41894758 -25.25 9.4375 C-24.07953125 9.72496094 -22.9090625 10.01242187 -21.703125 10.30859375 C-20.81109375 10.53675781 -19.9190625 10.76492188 -19 11 C-19 11.66 -19 12.32 -19 13 C-18.07380859 12.96519531 -18.07380859 12.96519531 -17.12890625 12.9296875 C-11.85540181 12.8173145 -7.2850725 13.26989284 -2.1796875 14.55078125 C1.27919862 15.26363412 4.47840953 15.18865663 8 15 C9.29524348 13.90645094 9.29524348 13.90645094 9.375 11.25 C8.87690378 6.93316607 7.27123585 5.75081196 4 3 C2.68824014 1.97186389 1.3630107 0.95915568 0 0 Z " fill="#82EEC9" transform="translate(205,468)"/>
<path d="M0 0 C0.33 1.32 0.66 2.64 1 4 C0.34 4 -0.32 4 -1 4 C-1.03738281 4.56847656 -1.07476562 5.13695312 -1.11328125 5.72265625 C-1.56978622 11.08435193 -2.63489082 15.1669508 -5 20 C-5.66 20 -6.32 20 -7 20 C-6.938125 21.7325 -6.938125 21.7325 -6.875 23.5 C-6.85912567 27.94481301 -7.78206895 31.73724131 -9 36 C-9.99 36 -10.98 36 -12 36 C-12 38.97 -12 41.94 -12 45 C-12.66 45 -13.32 45 -14 45 C-14.33 45.66 -14.66 46.32 -15 47 C-14.85816304 45.24967156 -14.71136571 43.49974466 -14.5625 41.75 C-14.48128906 40.77546875 -14.40007813 39.8009375 -14.31640625 38.796875 C-14.04925416 36.43538247 -13.64628032 34.28098935 -13 32 C-12.34 32 -11.68 32 -11 32 C-11 31.34 -11 30.68 -11 30 C-10.34 30 -9.68 30 -9 30 C-8.97421875 29.17757812 -8.9484375 28.35515625 -8.921875 27.5078125 C-8.38073134 16.8571214 -5.49376268 9.02546726 0 0 Z " fill="#62F1C0" transform="translate(26,144)"/>
<path d="M0 0 C0.33 0 0.66 0 1 0 C1.19335938 1.0621875 1.38671875 2.124375 1.5859375 3.21875 C3.16046941 12.03304604 3.16046941 12.03304604 5.1875 20.75 C6 24 6 24 6 28 C6.99 28 7.98 28 9 28 C10.75163456 31.77222089 11.22490027 34.666639 11.125 38.8125 C11.10695313 39.78832031 11.08890625 40.76414062 11.0703125 41.76953125 C11.03550781 42.87361328 11.03550781 42.87361328 11 44 C11.66 44 12.32 44 13 44 C13.33 46.31 13.66 48.62 14 51 C12 48 12 48 12 46 C11.34 46 10.68 46 10 46 C-0.30019157 13.84412905 -0.30019157 13.84412905 0 0 Z " fill="#A1F7DD" transform="translate(6,280)"/>
<path d="M0 0 C1.32 0.33 2.64 0.66 4 1 C3.41704824 5.0121328 2.16234373 7.79168254 0.05078125 11.23828125 C-0.55056641 12.22376953 -1.15191406 13.20925781 -1.77148438 14.22460938 C-2.40376953 15.24361328 -3.03605469 16.26261719 -3.6875 17.3125 C-4.30044922 18.31990234 -4.91339844 19.32730469 -5.54492188 20.36523438 C-9.09225191 26.13952028 -12.80426599 31.67647443 -17 37 C-17.33 35.68 -17.66 34.36 -18 33 C-17.34 33 -16.68 33 -16 33 C-15.67 31.35 -15.34 29.7 -15 28 C-14.34 28 -13.68 28 -13 28 C-12.67 27.01 -12.34 26.02 -12 25 C-11.34 25 -10.68 25 -10 25 C-9.01 21.535 -9.01 21.535 -8 18 C-7.34 18 -6.68 18 -6 18 C-5.01 14.7 -4.02 11.4 -3 8 C-2.34 8 -1.68 8 -1 8 C-0.67 5.36 -0.34 2.72 0 0 Z " fill="#79CCE4" transform="translate(473,355)"/>
<path d="M0 0 C0 0.99 0 1.98 0 3 C-1.97742308 4.89416316 -3.93475522 6.60352737 -6.0625 8.3125 C-7.2553058 9.29415241 -8.44801485 10.2759224 -9.640625 11.2578125 C-10.21876953 11.72864258 -10.79691406 12.19947266 -11.39257812 12.68457031 C-13.39279987 14.32144679 -15.35645685 15.99819001 -17.3125 17.6875 C-18.199375 18.450625 -19.08625 19.21375 -20 20 C-19.67 18.35 -19.34 16.7 -19 15 C-18.01 15 -17.02 15 -16 15 C-16.04125 14.236875 -16.0825 13.47375 -16.125 12.6875 C-16 10 -16 10 -14 7 C-10.875 6.3125 -10.875 6.3125 -8 6 C-7.87625 5.195625 -7.7525 4.39125 -7.625 3.5625 C-7.41875 2.716875 -7.2125 1.87125 -7 1 C-4.53721199 -0.231394 -2.7204945 -0.07159196 0 0 Z " fill="#71F4C7" transform="translate(157,136)"/>
<path d="M0 0 C2.475 0.495 2.475 0.495 5 1 C5.14695312 1.59167969 5.29390625 2.18335938 5.4453125 2.79296875 C7.15520774 8.81691001 8.9536211 11.34942803 14 15 C16 18 16 18 16 21 C16.99 21.33 17.98 21.66 19 22 C20.60546875 24.06640625 20.60546875 24.06640625 22.1875 26.5625 C22.71730469 27.38878906 23.24710938 28.21507812 23.79296875 29.06640625 C24.19128906 29.70449219 24.58960937 30.34257812 25 31 C24.67 31.66 24.34 32.32 24 33 C18.4603658 27.1805863 13.4390908 21.11217653 8.625 14.6875 C8.11356445 14.00623047 7.60212891 13.32496094 7.07519531 12.62304688 C0 3.0863025 0 3.0863025 0 0 Z " fill="#86F3D0" transform="translate(43,378)"/>
<path d="M0 0 C3.69383128 3.54871648 6.91313241 7.28295242 10 11.375 C10.43425293 11.94500732 10.86850586 12.51501465 11.31591797 13.10229492 C14.28723407 17.01629312 17.18843809 20.97009459 20 25 C17.5625 24.1875 17.5625 24.1875 15 23 C14.67 22.01 14.34 21.02 14 20 C12.68 20 11.36 20 10 20 C10 18.68 10 17.36 10 16 C9.38125 15.7525 8.7625 15.505 8.125 15.25 C5.57496075 13.74997691 5.23777652 12.6302751 4 10 C3.29875 9.38125 2.5975 8.7625 1.875 8.125 C0 6 0 6 -0.25 2.75 C-0.1675 1.8425 -0.085 0.935 0 0 Z " fill="#89F2CF" transform="translate(120,395)"/>
<path d="M0 0 C0.33 0 0.66 0 1 0 C1.02465098 4.96622349 1.04283649 9.93241166 1.05493164 14.89868164 C1.0599719 16.58944316 1.06680405 18.28020029 1.07543945 19.97094727 C1.08751857 22.39600707 1.09323123 24.82100944 1.09765625 27.24609375 C1.10281754 28.00651474 1.10797882 28.76693573 1.11329651 29.55039978 C1.11349238 31.3673257 1.06197277 33.18413127 1 35 C0.505 35.495 0.505 35.495 0 36 C-0.39993686 38.68862664 -0.75134543 41.36352217 -1.0625 44.0625 C-1.15337891 44.82111328 -1.24425781 45.57972656 -1.33789062 46.36132812 C-1.5624374 48.2404301 -1.78170978 50.12016095 -2 52 C-2.33 52 -2.66 52 -3 52 C-2.93880208 50.53125 -2.87760417 49.0625 -2.81640625 47.59375 C-2.77644531 46.63307617 -2.73648437 45.67240234 -2.6953125 44.68261719 C-2.60600918 42.54262061 -2.51615628 40.4026469 -2.42578125 38.26269531 C-2.18643603 32.57658412 -1.95627544 26.89039417 -1.74609375 21.203125 C-1.70476318 20.12095703 -1.66343262 19.03878906 -1.62084961 17.92382812 C-1.54147788 15.83931803 -1.46536579 13.75468077 -1.39282227 11.66992188 C-1.35600342 10.72181641 -1.31918457 9.77371094 -1.28125 8.796875 C-1.25095703 7.96510742 -1.22066406 7.13333984 -1.18945312 6.27636719 C-1.0068784 4.08264716 -0.5998521 2.11405367 0 0 Z " fill="#5FC5E7" transform="translate(423,192)"/>
<path d="M0 0 C3.538475 2.67913107 4.16294127 6.32426689 5.125 10.4375 C5.29676758 11.14455078 5.46853516 11.85160156 5.64550781 12.58007812 C7.06200639 18.68064869 7.762852 24.7392927 8 31 C7.67 30.34 7.34 29.68 7 29 C6.34 29 5.68 29 5 29 C4.72285156 27.86820312 4.44570312 26.73640625 4.16015625 25.5703125 C3.79439512 24.08851098 3.42850289 22.60674182 3.0625 21.125 C2.88009766 20.37863281 2.69769531 19.63226563 2.50976562 18.86328125 C1.54790308 14.82960875 1.54790308 14.82960875 0 11 C-0.07033769 9.12620395 -0.0843022 7.24998898 -0.0625 5.375 C-0.05347656 4.37210937 -0.04445313 3.36921875 -0.03515625 2.3359375 C-0.02355469 1.56507813 -0.01195313 0.79421875 0 0 Z " fill="#84F1CB" transform="translate(88,319)"/>
<path d="M0 0 C2 1 2 1 3 3 C2.2575 3.2475 1.515 3.495 0.75 3.75 C-3.31434837 5.59743108 -5.40256892 7.68565163 -7.25 11.75 C-7.4975 12.4925 -7.745 13.235 -8 14 C-8.66 14 -9.32 14 -10 14 C-10.66 17.96 -11.32 21.92 -12 26 C-12.66 26 -13.32 26 -14 26 C-14.66 32.27 -15.32 38.54 -16 45 C-16.33 45 -16.66 45 -17 45 C-17.33560276 35.78956858 -17.25491063 27.74580335 -14 19 C-13.74476563 18.30648438 -13.48953125 17.61296875 -13.2265625 16.8984375 C-10.32906723 10.22622362 -5.08608947 5.08608947 0 0 Z " fill="#9EE1F2" transform="translate(270,394)"/>
<path d="M0 0 C0.33 0 0.66 0 1 0 C1 1.98 1 3.96 1 6 C0.34 6 -0.32 6 -1 6 C-0.938125 7.299375 -0.938125 7.299375 -0.875 8.625 C-1 12 -1 12 -2 14.9375 C-3.19186349 17.95140879 -3.19186349 17.95140879 -2.8125 21.0703125 C-3.06147338 26.28837968 -4.87591539 30.21930529 -7 34.9375 C-7.3815625 35.81212891 -7.763125 36.68675781 -8.15625 37.58789062 C-9.09292091 39.73052532 -10.040945 41.86731421 -11 44 C-11.33 44 -11.66 44 -12 44 C-12 42.02 -12 40.04 -12 38 C-11.34 38 -10.68 38 -10 38 C-10 36.68 -10 35.36 -10 34 C-9.34 34 -8.68 34 -8 34 C-7.89042969 32.75863281 -7.78085937 31.51726562 -7.66796875 30.23828125 C-7.50846113 28.59629103 -7.3482688 26.95436722 -7.1875 25.3125 C-7.11724609 24.49587891 -7.04699219 23.67925781 -6.97460938 22.83789062 C-6.49240994 18.07376024 -5.69687686 15.04883601 -3 11 C-2.26640346 8.38220843 -2.26640346 8.38220843 -1.875 5.75 C-1.08896797 1.08896797 -1.08896797 1.08896797 0 0 Z " fill="#5DC5E7" transform="translate(494,302)"/>
<path d="M0 0 C0.33 0 0.66 0 1 0 C0.94341178 16.07105558 -3.77811431 31.9128153 -9 47 C-11 44 -11 44 -10.5390625 41.08203125 C-10.23742187 40.00308594 -9.93578125 38.92414063 -9.625 37.8125 C-9.32851563 36.72582031 -9.03203125 35.63914062 -8.7265625 34.51953125 C-8.48679687 33.68808594 -8.24703125 32.85664063 -8 32 C-7.34 32 -6.68 32 -6 32 C-6 30.02 -6 28.04 -6 26 C-5.34 26 -4.68 26 -4 26 C-3.93941406 25.31035156 -3.87882812 24.62070312 -3.81640625 23.91015625 C-3.55152417 20.9394018 -3.27625274 17.96971701 -3 15 C-2.9278125 14.16726563 -2.855625 13.33453125 -2.78125 12.4765625 C-2.35867913 8.0546602 -1.60867362 4.1825514 0 0 Z " fill="#8ED8E9" transform="translate(501,276)"/>
<path d="M0 0 C-0.51949219 0.25394531 -1.03898437 0.50789063 -1.57421875 0.76953125 C-5.4897658 2.70197314 -9.27167233 4.72157753 -13 7 C-15.55013877 8.48072574 -17.2215784 9.0347574 -20.1875 9.5 C-21.115625 9.665 -22.04375 9.83 -23 10 C-23.33 10.66 -23.66 11.32 -24 12 C-27.47325181 13.1577506 -30.36067448 13.06866652 -34 13 C-31.34880504 10.89099308 -28.86071614 9.35922895 -25.734375 8.0625 C-24.92613281 7.72476562 -24.11789063 7.38703125 -23.28515625 7.0390625 C-22.44855469 6.69617188 -21.61195313 6.35328125 -20.75 6 C-19.51830078 5.48566406 -19.51830078 5.48566406 -18.26171875 4.9609375 C-15.8471807 3.95838763 -13.42490286 2.97716977 -11 2 C-9.86788086 1.52820313 -9.86788086 1.52820313 -8.71289062 1.046875 C-3.34368525 -1.11456175 -3.34368525 -1.11456175 0 0 Z " fill="#8CF4D1" transform="translate(165,17)"/>
<path d="M0 0 C-2.71297954 2.15721159 -5.31311961 3.73058431 -8.484375 5.12109375 C-9.76441406 5.68860352 -9.76441406 5.68860352 -11.0703125 6.26757812 C-12.39675781 6.84668945 -12.39675781 6.84668945 -13.75 7.4375 C-15.4955216 8.20537412 -17.24032301 8.97488758 -18.984375 9.74609375 C-19.82677734 10.11847168 -20.66917969 10.49084961 -21.53710938 10.87451172 C-23.89754072 11.9531783 -26.20667737 13.10096021 -28.515625 14.28515625 C-32 16 -32 16 -34 16 C-34 15.34 -34 14.68 -34 14 C-33.01 14 -32.02 14 -31 14 C-31 13.01 -31 12.02 -31 11 C-30.05125 10.773125 -29.1025 10.54625 -28.125 10.3125 C-22.37476442 8.67292163 -16.66122007 6.01190205 -11.88671875 2.40234375 C-8.09777581 -0.4138685 -4.55330069 -0.08591133 0 0 Z " fill="#AEF8E4" transform="translate(209,110)"/>
<path d="M0 0 C0.33 0 0.66 0 1 0 C1.28079872 16.12216668 0.61636567 31.95671093 -1 48 C-1.66 48 -2.32 48 -3 48 C-3.66 48.99 -4.32 49.98 -5 51 C-4.51996881 46.40277823 -3.9988831 41.83203773 -3.28125 37.265625 C-1.33366338 24.83634673 -0.36940207 12.57240842 0 0 Z " fill="#B2E9F9" transform="translate(421,196)"/>
<path d="M0 0 C3.59664044 1.32004357 6.5770491 2.92530536 9.75 5.0625 C17.20850465 9.9120627 25.10519449 13.91839481 33 18 C33 18.33 33 18.66 33 19 C30.69 19 28.38 19 26 19 C26 18.34 26 17.68 26 17 C25.01 17 24.02 17 23 17 C22.484375 16.443125 21.96875 15.88625 21.4375 15.3125 C16.87657036 10.98546419 10.84451306 8.66871868 5 6.5 C2 5 2 5 0.5625 2.3125 C0.376875 1.549375 0.19125 0.78625 0 0 Z " fill="#ADF9E4" transform="translate(172,449)"/>
<path d="M0 0 C2.99026553 1.0252339 5.04196679 2.0346226 7.5 4.0625 C9.84185898 6.18266952 9.84185898 6.18266952 12.6875 6.5 C13.450625 6.665 14.21375 6.83 15 7 C15.28230469 7.61359375 15.56460938 8.2271875 15.85546875 8.859375 C17.32976322 11.61675852 18.87060482 12.33345391 21.625 13.75 C22.44226563 14.17796875 23.25953125 14.6059375 24.1015625 15.046875 C24.72804688 15.36140625 25.35453125 15.6759375 26 16 C26 16.66 26 17.32 26 18 C26.763125 17.938125 27.52625 17.87625 28.3125 17.8125 C31 18 31 18 32.8125 19.375 C34 21 34 21 34 23 C29.0652506 21.61374979 25.12840052 19.3737132 20.9375 16.5 C20.29353271 16.06437744 19.64956543 15.62875488 18.98608398 15.17993164 C14.41769047 12.05583739 9.95796319 8.80000169 5.5625 5.4375 C4.72029907 4.79361328 4.72029907 4.79361328 3.86108398 4.13671875 C2.55287317 3.11777408 1.27299276 2.06261621 0 1 C0 0.67 0 0.34 0 0 Z " fill="#84EFCD" transform="translate(94,436)"/>
<path d="M0 0 C0.99 0 1.98 0 3 0 C0.74617427 5.32333627 -3.5950065 8.92930675 -7.62866211 12.94433594 C-9.04223353 14.35477839 -10.44213757 15.77887575 -11.84179688 17.203125 C-17.18370413 22.54881816 -22.48921736 27.14108953 -29 31 C-27.46593371 27.68532105 -26.13688367 25.96055229 -23 24 C-22.34 24 -21.68 24 -21 24 C-20.690625 23.1646875 -20.690625 23.1646875 -20.375 22.3125 C-18.81689863 19.69205678 -16.8824595 18.16223185 -14.51171875 16.28515625 C-12.34523224 14.44336281 -10.73780729 12.24233199 -9 10 C-7.33333333 8.33333333 -5.66666667 6.66666667 -4 5 C-3.29875 4.071875 -2.5975 3.14375 -1.875 2.1875 C-1.25625 1.465625 -0.6375 0.74375 0 0 Z " fill="#6BC1DB" transform="translate(442,404)"/>
<path d="M0 0 C6.3167845 5.72458595 12.14484112 12.9177041 15 21 C14.01 21.33 13.02 21.66 12 22 C11.67 21.01 11.34 20.02 11 19 C10.35160156 18.70222656 9.70320313 18.40445313 9.03515625 18.09765625 C7 17 7 17 6.05859375 14.87109375 C5.85363281 14.06800781 5.64867187 13.26492187 5.4375 12.4375 C4.87681285 10.03794413 4.87681285 10.03794413 4 8 C3.01 7.67 2.02 7.34 1 7 C0.67 4.69 0.34 2.38 0 0 Z " fill="#74CEE6" transform="translate(449,89)"/>
<path d="M0 0 C3.20718282 1.60359141 3.416166 4.45129559 4.5625 7.75 C4.99691406 8.98234375 5.43132812 10.2146875 5.87890625 11.484375 C8.54711837 19.8515907 8.86282974 28.38441245 7 37 C6.34 37 5.68 37 5 37 C4.98598145 35.92685547 4.98598145 35.92685547 4.97167969 34.83203125 C4.91761155 31.55401808 4.83403529 28.27737639 4.75 25 C4.73582031 23.87464844 4.72164062 22.74929687 4.70703125 21.58984375 C4.50086589 14.53898856 3.47261506 10.1118025 0 4 C0 2.68 0 1.36 0 0 Z " fill="#9CF4D9" transform="translate(247,31)"/>
<path d="M0 0 C0.33 0 0.66 0 1 0 C1.01981934 0.95551758 1.03963867 1.91103516 1.06005859 2.89550781 C1.60867027 29.0054838 1.60867027 29.0054838 4 55 C3.34 54.67 2.68 54.34 2 54 C-0.08272009 47.66502166 -0.26619518 41.78201746 -0.1953125 35.15625 C-0.1924826 34.14655151 -0.18965271 33.13685303 -0.18673706 32.09655762 C-0.1756153 28.89758033 -0.15052563 25.6988915 -0.125 22.5 C-0.11495985 20.32031657 -0.10583582 18.14062871 -0.09765625 15.9609375 C-0.07570225 10.64052795 -0.04230518 5.32028459 0 0 Z " fill="#ACFAE1" transform="translate(86,265)"/>
<path d="M0 0 C8.81521634 3.19144915 14.89870015 9.29803748 20 17 C19.67 17.66 19.34 18.32 19 19 C18.01 19.33 17.02 19.66 16 20 C15.938125 19.401875 15.87625 18.80375 15.8125 18.1875 C15.17520477 15.74165425 15.17520477 15.74165425 12.5 14.625 C10 13 10 13 9.1875 9.8125 C9.125625 8.884375 9.06375 7.95625 9 7 C7.68 7 6.36 7 5 7 C4.731875 6.401875 4.46375 5.80375 4.1875 5.1875 C3.01506533 3.02775192 1.80630718 1.64209744 0 0 Z " fill="#61F0C0" transform="translate(227,12)"/>
<path d="M0 0 C0.66 0.66 1.32 1.32 2 2 C1.828125 3.8125 1.828125 3.8125 1.25 6 C0.37107741 9.50998305 -0.42789021 13.01128127 -1.125 16.5625 C-1.29257813 17.40941406 -1.46015625 18.25632813 -1.6328125 19.12890625 C-1.75398438 19.74636719 -1.87515625 20.36382812 -2 21 C-2.66 21 -3.32 21 -4 21 C-4.33 26.28 -4.66 31.56 -5 37 C-5.33 37 -5.66 37 -6 37 C-6 31.06 -6 25.12 -6 19 C-5.34 19 -4.68 19 -4 19 C-3.87882812 17.87980469 -3.75765625 16.75960937 -3.6328125 15.60546875 C-3.46396733 14.13276364 -3.29467303 12.66010996 -3.125 11.1875 C-3.04636719 10.44951172 -2.96773438 9.71152344 -2.88671875 8.95117188 C-2.45539714 5.28493819 -2.0803217 3.12048255 0 0 Z " fill="#62F0BF" transform="translate(90,233)"/>
<path d="M0 0 C1.98 0.99 1.98 0.99 4 2 C4 2.66 4 3.32 4 4 C4.66 4 5.32 4 6 4 C7.32594359 9.96674616 7.0884587 15.92583615 7 22 C3.28382438 19.27409468 2.78333014 15.2459653 1.8125 11 C1.63525391 10.27554688 1.45800781 9.55109375 1.27539062 8.8046875 C0.55882276 5.8056158 0 3.09349792 0 0 Z " fill="#6CCBE7" transform="translate(412,144)"/>
<path d="M0 0 C0.66 0.33 1.32 0.66 2 1 C0.68 4.3 -0.64 7.6 -2 11 C-2.66 11 -3.32 11 -4 11 C-4.0825 11.66 -4.165 12.32 -4.25 13 C-5.24759791 16.99039163 -7.07166683 20.38549643 -9 24 C-9.33 24 -9.66 24 -10 24 C-10.3690205 14.58997722 -10.3690205 14.58997722 -8 10 C-6.68 10 -5.36 10 -4 10 C-3.8453125 8.9171875 -3.8453125 8.9171875 -3.6875 7.8125 C-2.94013068 4.75508007 -1.71954811 2.61670365 0 0 Z " fill="#61F2C0" transform="translate(113,180)"/>
<path d="M0 0 C0.66 0.33 1.32 0.66 2 1 C1.45730469 1.60328125 0.91460937 2.2065625 0.35546875 2.828125 C-0.35996094 3.62734375 -1.07539063 4.4265625 -1.8125 5.25 C-2.52019531 6.03890625 -3.22789062 6.8278125 -3.95703125 7.640625 C-5.74168935 9.7016833 -7.39759062 11.79605523 -9 14 C-10.65 13.67 -12.3 13.34 -14 13 C-14 14.65 -14 16.3 -14 18 C-14.33 18 -14.66 18 -15 18 C-15 16.02 -15 14.04 -15 12 C-15.99 12 -16.98 12 -18 12 C-18 10.68 -18 9.36 -18 8 C-17.40832031 8.13019531 -16.81664063 8.26039063 -16.20703125 8.39453125 C-13.73594229 8.82586326 -11.5090758 9.1013768 -9 9 C-6.08333333 6.91666667 -6.08333333 6.91666667 -4 4 C-2.66666667 2.66666667 -1.33333333 1.33333333 0 0 Z " fill="#59F6BF" transform="translate(135,156)"/>
<path d="M0 0 C0.99 0.33 1.98 0.66 3 1 C1.60659992 5.18020025 -1.36186855 6.46557639 -4.9375 8.6875 C-5.58396484 9.10322266 -6.23042969 9.51894531 -6.89648438 9.94726562 C-11.72371459 13 -11.72371459 13 -14 13 C-14 12.01 -14 11.02 -14 10 C-13.34 10 -12.68 10 -12 10 C-11.67 9.01 -11.34 8.02 -11 7 C-8.53072559 3.77094885 -7.31407952 3.0628159 -3.25 2.25 C-1.64125 2.12625 -1.64125 2.12625 0 2 C0 1.34 0 0.68 0 0 Z " fill="#87F4D2" transform="translate(172,124)"/>
<path d="M0 0 C0.99 0 1.98 0 3 0 C3 0.66 3 1.32 3 2 C3.969375 1.87625 4.93875 1.7525 5.9375 1.625 C11.18422677 1.58208199 15.09647731 4.76660996 19 8 C20.35439668 10.70879335 20.06501451 13.00933268 20 16 C19.34 16.33 18.68 16.66 18 17 C17.67 14.36 17.34 11.72 17 9 C14.69 8.34 12.38 7.68 10 7 C10 6.34 10 5.68 10 5 C7.03 4.67 4.06 4.34 1 4 C0.67 2.68 0.34 1.36 0 0 Z " fill="#68EEC3" transform="translate(195,466)"/>
<path d="M0 0 C1.06340773 3.19736014 0.96582104 4.8981025 -0.3125 8 C-0.70888672 8.99 -0.70888672 8.99 -1.11328125 10 C-3.05159512 14.37187975 -5.353563 18.54363519 -7.625 22.75 C-7.94984375 23.35199219 -8.2746875 23.95398438 -8.609375 24.57421875 C-9.40570585 26.04977297 -10.20277839 27.52492686 -11 29 C-12.19516399 25.41450802 -11.76989133 24.85754494 -10.234375 21.54296875 C-9.83863281 20.67736328 -9.44289063 19.81175781 -9.03515625 18.91992188 C-8.61105469 18.01822266 -8.18695312 17.11652344 -7.75 16.1875 C-7.34136719 15.29740234 -6.93273437 14.40730469 -6.51171875 13.49023438 C-4.41950722 8.95262449 -2.26689385 4.4528272 0 0 Z " fill="#9CF6D9" transform="translate(31,128)"/>
<path d="M0 0 C1.65 0 3.3 0 5 0 C1.37276129 4.3110624 -3.16286873 6.37846878 -8.125 8.8125 C-8.94871094 9.23208984 -9.77242187 9.65167969 -10.62109375 10.08398438 C-11.40871094 10.47521484 -12.19632813 10.86644531 -13.0078125 11.26953125 C-13.72598145 11.62635986 -14.44415039 11.98318848 -15.18408203 12.35083008 C-15.78333496 12.56505615 -16.38258789 12.77928223 -17 13 C-17.66 12.67 -18.32 12.34 -19 12 C-13 6 -13 6 -9.9375 5.9375 C-8.4834375 5.9684375 -8.4834375 5.9684375 -7 6 C-7 5.34 -7 4.68 -7 4 C-6.030625 3.71125 -5.06125 3.4225 -4.0625 3.125 C-0.89335797 2.35785318 -0.89335797 2.35785318 0 0 Z " fill="#7FF1CC" transform="translate(228,97)"/>
<path d="M0 0 C-3.40401948 1.13732426 -5.77456664 0.83989957 -9.25 0.0625 C-10.14203125 -0.13214844 -11.0340625 -0.32679687 -11.953125 -0.52734375 C-12.62859375 -0.68332031 -13.3040625 -0.83929688 -14 -1 C-14 -1.66 -14 -2.32 -14 -3 C-16.58366245 -2.85879984 -19.16682885 -2.71221667 -21.75 -2.5625 C-22.47960937 -2.52318359 -23.20921875 -2.48386719 -23.9609375 -2.44335938 C-27.43472875 -2.23808989 -30.63961807 -1.86439577 -34 -1 C-35.41534778 -0.93543121 -36.83337689 -0.91388961 -38.25 -0.9375 C-40.10625 -0.9684375 -40.10625 -0.9684375 -42 -1 C-30.33495293 -7.4805817 -11.68882988 -5.42090661 0 0 Z " fill="#AFF9E3" transform="translate(227,11)"/>
<path d="M0 0 C4.1100575 2.05502875 5.42155635 7.87176276 7 12 C7.66 12 8.32 12 9 12 C9 14.31 9 16.62 9 19 C9.66 19 10.32 19 11 19 C11.33 20.65 11.66 22.3 12 24 C8.59543607 20.911091 6.49755705 17.72108688 4.3125 13.6875 C3.71050781 12.59824219 3.10851563 11.50898438 2.48828125 10.38671875 C0.93769757 6.85822518 0.36321142 3.82098411 0 0 Z " fill="#81F1CC" transform="translate(31,354)"/>
<path d="M0 0 C0.99 0 1.98 0 3 0 C3 0.66 3 1.32 3 2 C2.01 2 1.02 2 0 2 C-0.1546875 2.9590625 -0.1546875 2.9590625 -0.3125 3.9375 C-0.539375 4.618125 -0.76625 5.29875 -1 6 C-1.99 6.33 -2.98 6.66 -4 7 C-4 7.66 -4 8.32 -4 9 C-4.78375 9.28875 -5.5675 9.5775 -6.375 9.875 C-9.09671632 10.84912254 -9.09671632 10.84912254 -11 13 C-12.32 13 -13.64 13 -15 13 C-15.33 11.35 -15.66 9.7 -16 8 C-15.39671875 7.96261719 -14.7934375 7.92523438 -14.171875 7.88671875 C-9.5526711 7.50675198 -6.53065899 7.24820627 -3 4 C-2.34 4 -1.68 4 -1 4 C-0.67 2.68 -0.34 1.36 0 0 Z " fill="#5AF8BF" transform="translate(237,88)"/>
<path d="M0 0 C3.43536181 1.42152903 4.80445333 3.07260444 7 6 C9.08334635 7.2516467 9.08334635 7.2516467 11 8 C11 8.99 11 9.98 11 11 C11.59296875 11.25523438 12.1859375 11.51046875 12.796875 11.7734375 C15.21224538 13.11816498 16.51211706 14.49214367 18.25 16.625 C18.77078125 17.25664063 19.2915625 17.88828125 19.828125 18.5390625 C20.40820312 19.26222656 20.40820312 19.26222656 21 20 C18 20 18 20 15.73828125 18.1015625 C14.93777344 17.28429687 14.13726562 16.46703125 13.3125 15.625 C12.50425781 14.81289063 11.69601562 14.00078125 10.86328125 13.1640625 C9 11 9 11 9 9 C8.443125 8.773125 7.88625 8.54625 7.3125 8.3125 C4.33840412 6.62449964 2.27991135 4.53323483 0 2 C0 1.34 0 0.68 0 0 Z " fill="#5FC0E2" transform="translate(350,48)"/>
<path d="M0 0 C2.43047521 2.23881844 4.04424529 4.52516288 5.69921875 7.37890625 C6.18583984 8.21744141 6.67246094 9.05597656 7.17382812 9.91992188 C7.67333984 10.79197266 8.17285156 11.66402344 8.6875 12.5625 C9.19861328 13.43841797 9.70972656 14.31433594 10.23632812 15.21679688 C14 21.74417974 14 21.74417974 14 24 C13.34 24 12.68 24 12 24 C10.59442696 21.96176988 9.31460719 19.94223094 8.0625 17.8125 C7.71509766 17.23435547 7.36769531 16.65621094 7.00976562 16.06054688 C5.99999244 14.37759157 4.99985615 12.68886592 4 11 C3.43539063 10.1028125 2.87078125 9.205625 2.2890625 8.28125 C0.74107646 5.54178379 0.36101316 3.10471321 0 0 Z " fill="#7FCBE7" transform="translate(464,110)"/>
<path d="M0 0 C-3.78549368 1.866971 -7.5793041 3.71637066 -11.375 5.5625 C-12.99535156 6.36204102 -12.99535156 6.36204102 -14.6484375 7.17773438 C-15.6796875 7.67724609 -16.7109375 8.17675781 -17.7734375 8.69140625 C-18.72653809 9.15748291 -19.67963867 9.62355957 -20.66162109 10.10375977 C-21.43328613 10.39951904 -22.20495117 10.69527832 -23 11 C-23.66 10.67 -24.32 10.34 -25 10 C-23.6875 8.5 -23.6875 8.5 -22 7 C-21.01 7 -20.02 7 -19 7 C-19 6.34 -19 5.68 -19 5 C-17.824375 4.566875 -16.64875 4.13375 -15.4375 3.6875 C-12.64121951 2.65312368 -9.94652039 1.51929485 -7.25 0.25 C-3.88453442 -1.04440984 -3.22612777 -1.03797154 0 0 Z " fill="#71C8DE" transform="translate(380,457)"/>
<path d="M0 0 C3.80848024 1.55160306 6.22296679 4.07680714 9 7 C10.53352116 8.61195523 12.07580683 10.21560072 13.625 11.8125 C14.38039063 12.60269531 15.13578125 13.39289063 15.9140625 14.20703125 C17.92074132 16.32592166 17.92074132 16.32592166 21 16 C21.33 18.31 21.66 20.62 22 23 C21.35675781 22.35546875 20.71351563 21.7109375 20.05078125 21.046875 C17.63840069 18.63364351 15.21623509 16.23042232 12.79296875 13.828125 C11.25775773 12.30213843 9.72260277 10.77609546 8.1875 9.25 C7.39923828 8.47011719 6.61097656 7.69023438 5.79882812 6.88671875 C5.05439453 6.14550781 4.30996094 5.40429688 3.54296875 4.640625 C2.86258545 3.96547852 2.18220215 3.29033203 1.48120117 2.59472656 C0 1 0 1 0 0 Z " fill="#AAE9F8" transform="translate(351,52)"/>
<path d="M0 0 C-0.99 0.495 -0.99 0.495 -2 1 C-2.433125 2.2065625 -2.433125 2.2065625 -2.875 3.4375 C-4.23482631 6.53488216 -4.93972935 6.76636148 -8 8 C-9.73813388 8.42663286 -11.48988665 8.80076859 -13.25 9.125 C-14.58804687 9.37636719 -14.58804687 9.37636719 -15.953125 9.6328125 C-16.62859375 9.75398438 -17.3040625 9.87515625 -18 10 C-17.34 9.01 -16.68 8.02 -16 7 C-12.375 6.3125 -12.375 6.3125 -9 6 C-8.896875 5.38125 -8.79375 4.7625 -8.6875 4.125 C-7.25616829 -0.29911619 -4.03097181 -0.21789037 0 0 Z " fill="#59C9F3" transform="translate(390,448)"/>
<path d="M0 0 C0.66 0 1.32 0 2 0 C1.67 6.27 1.34 12.54 1 19 C0.67 18.34 0.34 17.68 0 17 C-0.66 17 -1.32 17 -2 17 C-2.25287193 10.93107371 -1.69832609 5.83799592 0 0 Z " fill="#5AC6E5" transform="translate(256,420)"/>
<path d="M0 0 C1.32 0.33 2.64 0.66 4 1 C1.5662803 5.38069547 -0.98768423 9.6759501 -3.625 13.9375 C-4.51058594 15.37416016 -4.51058594 15.37416016 -5.4140625 16.83984375 C-6.19910156 17.90912109 -6.19910156 17.90912109 -7 19 C-7.66 19 -8.32 19 -9 19 C-8.45276317 15.62537285 -7.9451 13.91765 -6 11 C-5.34 11 -4.68 11 -4 11 C-4 9.68 -4 8.36 -4 7 C-3.01 7 -2.02 7 -1 7 C-0.67 4.69 -0.34 2.38 0 0 Z " fill="#90F1D0" transform="translate(121,169)"/>
<path d="M0 0 C3.11609168 3.96593487 5.04092464 7.48414721 6.0625 12.4375 C6.22621094 13.21867188 6.38992188 13.99984375 6.55859375 14.8046875 C6.77708984 15.89136719 6.77708984 15.89136719 7 17 C7.309375 18.5159375 7.309375 18.5159375 7.625 20.0625 C7.74875 20.701875 7.8725 21.34125 8 22 C7.01 22 6.02 22 5 22 C4.1602972 19.08503169 3.32803997 16.1682814 2.5 13.25 C2.26152344 12.425 2.02304687 11.6 1.77734375 10.75 C1.55175781 9.95078125 1.32617188 9.1515625 1.09375 8.328125 C0.88427734 7.5949707 0.67480469 6.86181641 0.45898438 6.10644531 C0 4 0 4 0 0 Z " fill="#5EC3E5" transform="translate(478,134)"/>
<path d="M0 0 C0.99 0.33 1.98 0.66 3 1 C1.68 2.65 0.36 4.3 -1 6 C1.64 6.66 4.28 7.32 7 8 C7 8.66 7 9.32 7 10 C3.05272412 10.17942163 0.4019487 10.09350689 -3 8 C-3 7.01 -3 6.02 -3 5 C-3.99 4.67 -4.98 4.34 -6 4 C-5.38125 3.71125 -4.7625 3.4225 -4.125 3.125 C-1.86674235 2.06279958 -1.86674235 2.06279958 0 0 Z " fill="#69F4C3" transform="translate(131,452)"/>
<path d="M0 0 C3.27358823 1.09119608 3.83094239 1.75639646 5.875 4.375 C8.31895587 7.36884594 10.66222795 9.03660468 14 11 C14 11.99 14 12.98 14 14 C16.475 14.99 16.475 14.99 19 16 C18.67 16.99 18.34 17.98 18 19 C4.94366197 7.31690141 4.94366197 7.31690141 0 1 C0 0.67 0 0.34 0 0 Z " fill="#8AF2D2" transform="translate(68,411)"/>
<path d="M0 0 C0.99 0.33 1.98 0.66 3 1 C3.16435547 1.99580078 3.16435547 1.99580078 3.33203125 3.01171875 C4.2322462 8.02511098 5.24034486 11.66339907 8 16 C7.67 16.99 7.34 17.98 7 19 C2.77911516 13.03254212 -0.55451654 7.57839276 0 0 Z " fill="#60F1C0" transform="translate(95,350)"/>
<path d="M0 0 C0.33 0 0.66 0 1 0 C1.05449838 1.72880982 1.09301688 3.45812712 1.125 5.1875 C1.14820313 6.15042969 1.17140625 7.11335937 1.1953125 8.10546875 C0.98750265 11.1852108 0.45744551 13.2829741 -1 16 C-1.99 16.33 -2.98 16.66 -4 17 C-3.45018084 10.95198929 -2.09570426 5.69398894 0 0 Z " fill="#67C4E4" transform="translate(418,243)"/>
<path d="M0 0 C4.41607356 2.20803678 6.68332137 4.63395181 9 9 C8.75 11.375 8.75 11.375 8 13 C3.32212121 9.83927109 1.82192026 7.17808915 0 2 C0 1.34 0 0.68 0 0 Z " fill="#7CCEE5" transform="translate(372,70)"/>
<path d="M0 0 C0.66 0.33 1.32 0.66 2 1 C0.78192862 2.15762119 -0.45001235 3.3006583 -1.6875 4.4375 C-2.71423828 5.39462891 -2.71423828 5.39462891 -3.76171875 6.37109375 C-6.22289422 8.16221098 -8.00816574 8.62798558 -11 9 C-11 9.99 -11 10.98 -11 12 C-12.98 12 -14.96 12 -17 12 C-13.97348807 8.82909668 -10.60408072 6.61481402 -6.9375 4.25 C-6.30005859 3.82589844 -5.66261719 3.40179688 -5.00585938 2.96484375 C-3.3776117 1.91137265 -1.69200355 0.94768972 0 0 Z " fill="#82EFC9" transform="translate(120,35)"/>
<path d="M0 0 C0.33 0 0.66 0 1 0 C0.59314111 9.35775436 -0.60438853 17.92982326 -3 27 C-3.33 27 -3.66 27 -4 27 C-3.68178641 22.99863333 -3.34648525 18.99901727 -3 15 C-2.9278125 14.14535156 -2.855625 13.29070312 -2.78125 12.41015625 C-2.36025065 8.01221661 -1.59983722 4.15957678 0 0 Z " fill="#B5EFF8" transform="translate(501,276)"/>
<path d="M0 0 C0.33 0.99 0.66 1.98 1 3 C0.57589844 3.4125 0.15179688 3.825 -0.28515625 4.25 C-4.18404175 8.08890264 -7.86375404 12.04644163 -11.421875 16.203125 C-12.88881269 17.87340058 -14.40956293 19.44788672 -16 21 C-16.66 20.67 -17.32 20.34 -18 20 C-17.52691406 19.55011719 -17.05382812 19.10023438 -16.56640625 18.63671875 C-11.57963475 13.78603848 -7.13642343 8.64867896 -2.78515625 3.22265625 C-1 1 -1 1 0 0 Z " fill="#B3EAF7" transform="translate(380,320)"/>
<path d="M0 0 C2.75264246 1.01928392 3.80789324 1.63399267 5.1953125 4.27734375 C5.50210937 5.15519531 5.80890625 6.03304687 6.125 6.9375 C7.22277318 10.01761565 8.16675007 12.2501251 10 15 C5.33845958 13.50164772 4.13389249 10.11536409 2 6 C1.01 6.66 0.02 7.32 -1 8 C-0.67 5.36 -0.34 2.72 0 0 Z " fill="#56C8F4" transform="translate(460,108)"/>
<path d="M0 0 C-0.51949219 0.25394531 -1.03898437 0.50789063 -1.57421875 0.76953125 C-5.4897658 2.70197314 -9.27167233 4.72157753 -13 7 C-16.45098039 9.09150327 -16.45098039 9.09150327 -19.25 8.625 C-19.8275 8.41875 -20.405 8.2125 -21 8 C-18.35261084 6.5393715 -17.10551666 6 -14 6 C-14 5.01 -14 4.02 -14 3 C-12.23358317 2.3012307 -10.46167336 1.61633417 -8.6875 0.9375 C-7.20830078 0.36322266 -7.20830078 0.36322266 -5.69921875 -0.22265625 C-3 -1 -3 -1 0 0 Z " fill="#80F0CA" transform="translate(165,17)"/>
<path d="M0 0 C4.51707932 0.5314211 7.38687577 2.29015683 11 5 C12.42041821 7.84083641 12.31452272 9.85477278 12 13 C10 15.375 10 15.375 8 17 C8.13019531 16.40832031 8.26039063 15.81664062 8.39453125 15.20703125 C8.82593876 12.73550974 9.10122487 10.50953334 9 8 C6.93714781 5.02041215 6.93714781 5.02041215 4 3 C3.236875 2.401875 2.47375 1.80375 1.6875 1.1875 C1.130625 0.795625 0.57375 0.40375 0 0 Z " fill="#A6F6E0" transform="translate(205,468)"/>
<path d="M0 0 C1 2 1 2 0.1875 4.8125 C-0.83599774 7.55978342 -1.88377654 10.28917159 -3 13 C-4.32 13 -5.64 13 -7 13 C-6.65986985 7.55791766 -3.29703472 4.06331802 0 0 Z " fill="#95DAF1" transform="translate(388,309)"/>
<path d="M0 0 C1.3357457 3.77371512 0.72408671 6.85831347 0.0625 10.75 C-0.13214844 11.92046875 -0.32679687 13.0909375 -0.52734375 14.296875 C-0.68332031 15.18890625 -0.83929687 16.0809375 -1 17 C-1.66 17 -2.32 17 -3 17 C-3.33 17.66 -3.66 18.32 -4 19 C-4.62621031 12.11168659 -2.35806067 6.41097745 0 0 Z " fill="#93F2D3" transform="translate(18,157)"/>
<path d="M0 0 C0.66 0 1.32 0 2 0 C1.67 1.65 1.34 3.3 1 5 C-0.423125 5.0928125 -0.423125 5.0928125 -1.875 5.1875 C-2.90625 5.455625 -3.9375 5.72375 -5 6 C-6.15521502 8.47130918 -6.15521502 8.47130918 -7 11 C-9.125 11.8125 -9.125 11.8125 -11 12 C-10.43447641 8.71996319 -9.67167078 7.02678473 -7 5 C-5.96875 4.67 -4.9375 4.34 -3.875 4 C-2.92625 3.67 -1.9775 3.34 -1 3 C-0.67 2.01 -0.34 1.02 0 0 Z " fill="#5EF4C1" transform="translate(83,63)"/>
<path d="M0 0 C5.28 0 10.56 0 16 0 C16 0.66 16 1.32 16 2 C17.918125 1.938125 17.918125 1.938125 19.875 1.875 C22.0546875 1.8046875 22.0546875 1.8046875 24 2 C24.66 2.66 25.32 3.32 26 4 C17.24034738 3.45520982 8.65437017 2.45892001 0 1 C0 0.67 0 0.34 0 0 Z " fill="#6BEEC1" transform="translate(197,8)"/>
<path d="M0 0 C0.99 0.33 1.98 0.66 3 1 C3.6875 3.0625 3.6875 3.0625 4 5 C6.475 5.495 6.475 5.495 9 6 C9 6.33 9 6.66 9 7 C6.36 7 3.72 7 1 7 C1 6.34 1 5.68 1 5 C-3.29 4.34 -7.58 3.68 -12 3 C-12 2.67 -12 2.34 -12 2 C-8.04 2.33 -4.08 2.66 0 3 C0 2.01 0 1.02 0 0 Z " fill="#56F6BE" transform="translate(185,474)"/>
<path d="M0 0 C0.66 0 1.32 0 2 0 C2.33820166 1.5823006 2.67035939 3.16589375 3 4.75 C3.185625 5.63171875 3.37125 6.5134375 3.5625 7.421875 C4 10 4 10 4 14 C4.66 14 5.32 14 6 14 C6 16.64 6 19.28 6 22 C3.90284215 18.85426323 3.47995441 16.98543749 2.875 13.3125 C2.70742188 12.31863281 2.53984375 11.32476562 2.3671875 10.30078125 C2.24601562 9.54152344 2.12484375 8.78226562 2 8 C1.34 8 0.68 8 0 8 C0 5.36 0 2.72 0 0 Z " fill="#64F1C1" transform="translate(17,316)"/>
<path d="M0 0 C0.33 0 0.66 0 1 0 C0.67 5.28 0.34 10.56 0 16 C-0.66 16 -1.32 16 -2 16 C-2.66 16.99 -3.32 17.98 -4 19 C-3.46048934 12.31006781 -2.11293829 6.36539272 0 0 Z " fill="#92D9EA" transform="translate(420,228)"/>
<path d="M0 0 C-0.19921875 1.88671875 -0.19921875 1.88671875 -1 4 C-3.14453125 5.08203125 -3.14453125 5.08203125 -5.8125 5.8125 C-6.68519531 6.06644531 -7.55789063 6.32039063 -8.45703125 6.58203125 C-11.03957999 7.00650547 -12.55026641 6.8394192 -15 6 C-13.06629769 4.99267601 -11.12789694 3.99436712 -9.1875 3 C-8.10855469 2.443125 -7.02960938 1.88625 -5.91796875 1.3125 C-3 0 -3 0 0 0 Z " fill="#80CAE2" transform="translate(301,378)"/>
<path d="M0 0 C0.66 0.33 1.32 0.66 2 1 C-0.80993891 6.17620325 -3.72807677 10.099804 -9.3125 12.3125 C-10.6428125 12.6528125 -10.6428125 12.6528125 -12 13 C-11.67 12.01 -11.34 11.02 -11 10 C-9.34795544 9.29788106 -7.68076231 8.63028587 -6 8 C-5.67 7.34 -5.34 6.68 -5 6 C-4.34 6 -3.68 6 -3 6 C-2.87625 5.38125 -2.7525 4.7625 -2.625 4.125 C-2 2 -2 2 0 0 Z " fill="#58F6C0" transform="translate(103,47)"/>
<path d="M0 0 C1.1817019 3.5451057 0.7911988 4.14017506 -0.65234375 7.44921875 C-1.01650391 8.29677734 -1.38066406 9.14433594 -1.75585938 10.01757812 C-2.34077148 11.33918945 -2.34077148 11.33918945 -2.9375 12.6875 C-3.32357422 13.58017578 -3.70964844 14.47285156 -4.10742188 15.39257812 C-5.06311123 17.59892268 -6.02755469 19.80100147 -7 22 C-7.33 22 -7.66 22 -8 22 C-8 20.02 -8 18.04 -8 16 C-7.34 16 -6.68 16 -6 16 C-6 14.68 -6 13.36 -6 12 C-5.34 12 -4.68 12 -4 12 C-3.67 9.69 -3.34 7.38 -3 5 C-2.34 5 -1.68 5 -1 5 C-0.67 3.35 -0.34 1.7 0 0 Z " fill="#9BDDEF" transform="translate(490,324)"/>
<path d="M0 0 C-3.37169992 2.83222793 -6.85888893 4.52103176 -11 6 C-13.4375 5.6875 -13.4375 5.6875 -15 5 C-9.79981505 0.64308829 -6.77267164 -0.12778626 0 0 Z " fill="#94F3D7" transform="translate(209,110)"/>
<path d="M0 0 C-6.63729312 3.52350129 -12.513226 4.7201206 -20 5 C-17.30621211 2.30621211 -14.77425019 1.86327163 -11.125 0.8125 C-9.89007813 0.44769531 -8.65515625 0.08289063 -7.3828125 -0.29296875 C-4.31094495 -0.93501035 -2.85642008 -1.12677877 0 0 Z " fill="#9BF4D7" transform="translate(185,11)"/>
<path d="M0 0 C0.33 0 0.66 0 1 0 C1.26807674 4.78915472 0.43956464 8.23756592 -1.3125 12.6875 C-1.95638672 14.36392578 -1.95638672 14.36392578 -2.61328125 16.07421875 C-3.85177489 18.68726589 -4.80598121 20.17915743 -7 22 C-6.35983027 16.86243532 -4.80299667 12.41209819 -2.9375 7.625 C-2.65583984 6.88894531 -2.37417969 6.15289062 -2.08398438 5.39453125 C-1.39433382 3.5944264 -0.69786068 1.7969379 0 0 Z " fill="#6EC1DF" transform="translate(412,262)"/>
<path d="M0 0 C0.33 0.66 0.66 1.32 1 2 C1.66 2.33 2.32 2.66 3 3 C2.01 3 1.02 3 0 3 C-0.0825 3.7425 -0.165 4.485 -0.25 5.25 C-1.14809799 8.54302595 -2.38416074 9.85976788 -5 12 C-5.66 12 -6.32 12 -7 12 C-5.44298069 7.32894208 -2.91552627 3.91294315 0 0 Z " fill="#8CF2CE" transform="translate(46,104)"/>
<path d="M0 0 C6.30719307 0.92065781 9.91921368 1.9977458 14 7 C9.20230335 6.52963758 5.98221594 5.73066236 2 3 C1.34 2.67 0.68 2.34 0 2 C0 1.34 0 0.68 0 0 Z " fill="#68C7E8" transform="translate(394,41)"/>
<path d="M0 0 C0 0.66 0 1.32 0 2 C-1.65 2.33 -3.3 2.66 -5 3 C-5.33 3.99 -5.66 4.98 -6 6 C-8.97 5.505 -8.97 5.505 -12 5 C-11.67 4.01 -11.34 3.02 -11 2 C-7.12137916 0.60955102 -4.13537997 0 0 0 Z " fill="#58C9F4" transform="translate(361,462)"/>
<path d="M0 0 C1.68550367 3.37100733 -0.31136964 6.72014632 -1.4375 10.125 C-1.68048828 10.87910156 -1.92347656 11.63320312 -2.17382812 12.41015625 C-2.77595819 14.27557879 -3.38713463 16.13807683 -4 18 C-6 15 -6 15 -5.5390625 12.30078125 C-5.08660156 10.82158203 -5.08660156 10.82158203 -4.625 9.3125 C-4.32851562 8.31863281 -4.03203125 7.32476562 -3.7265625 6.30078125 C-3.48679687 5.54152344 -3.24703125 4.78226563 -3 4 C-2.34 4 -1.68 4 -1 4 C-0.67 2.68 -0.34 1.36 0 0 Z " fill="#9CF6D7" transform="translate(97,220)"/>
<path d="M0 0 C5.67355671 0.61726196 11.33861055 1.27945952 17 2 C17 2.66 17 3.32 17 4 C17.66 4.33 18.32 4.66 19 5 C12.23784552 4.59060025 6.32837252 3.43046191 0 1 C0 0.67 0 0.34 0 0 Z " fill="#6AC3E1" transform="translate(312,6)"/>
<path d="M0 0 C6.68993219 0.53951066 12.63460728 1.88706171 19 4 C13.13734035 5.76810371 6.40180472 4.86970875 1 2 C0.67 1.34 0.34 0.68 0 0 Z " fill="#9EE0F3" transform="translate(306,3)"/>
<path d="M0 0 C0 3 0 3 -1.86328125 5.2265625 C-2.67152344 6.01804687 -3.47976562 6.80953125 -4.3125 7.625 C-5.51326172 8.81996094 -5.51326172 8.81996094 -6.73828125 10.0390625 C-9 12 -9 12 -12 13 C-12 12.34 -12 11.68 -12 11 C-11.01 10.34 -10.02 9.68 -9 9 C-8.67 8.01 -8.34 7.02 -8 6 C-7.01 6 -6.02 6 -5 6 C-5 5.01 -5 4.02 -5 3 C-4.01 3 -3.02 3 -2 3 C-2 2.34 -2 1.68 -2 1 C-1.34 0.67 -0.68 0.34 0 0 Z " fill="#9FF7DB" transform="translate(245,84)"/>
<path d="M0 0 C5.84450583 1.53802785 11.12711522 4.4560838 16 8 C16 8.66 16 9.32 16 10 C12.50231551 8.73694727 9.9464438 7.23215439 7 5 C5.4221875 4.2265625 5.4221875 4.2265625 3.8125 3.4375 C1 2 1 2 0 0 Z " fill="#6CEBC0" transform="translate(179,456)"/>
<path d="M0 0 C0.99 0.33 1.98 0.66 3 1 C1.9015258 2.46262592 0.7959964 3.91995503 -0.3125 5.375 C-0.92738281 6.18710937 -1.54226563 6.99921875 -2.17578125 7.8359375 C-4 10 -4 10 -7 12 C-6.34 10.35 -5.68 8.7 -5 7 C-4.34 7 -3.68 7 -3 7 C-2.814375 5.824375 -2.814375 5.824375 -2.625 4.625 C-2 2 -2 2 0 0 Z " fill="#75C7E1" transform="translate(452,392)"/>
<path d="M0 0 C2.6072902 2.6072902 3.48026787 5.5359257 4.6875 8.9375 C4.92533203 9.57107422 5.16316406 10.20464844 5.40820312 10.85742188 C7.12148952 15.63553144 7.12148952 15.63553144 6 19 C3.4127495 16.4127495 2.93443913 14.11722529 1.875 10.625 C1.52179688 9.48289062 1.16859375 8.34078125 0.8046875 7.1640625 C0 4 0 4 0 0 Z " fill="#AEFBE4" transform="translate(95,342)"/>
<path d="M0 0 C0.33 0 0.66 0 1 0 C1 1.65 1 3.3 1 5 C0.34 5 -0.32 5 -1 5 C-1.144375 5.78375 -1.28875 6.5675 -1.4375 7.375 C-2 10 -2 10 -3 12 C-3.99 12 -4.98 12 -6 12 C-4.68315519 7.39104317 -2.84801255 3.85859765 0 0 Z " fill="#95F5D6" transform="translate(38,116)"/>
<path d="M0 0 C0.33 0.99 0.66 1.98 1 3 C0.38125 3.04125 -0.2375 3.0825 -0.875 3.125 C-1.57625 3.41375 -2.2775 3.7025 -3 4 C-4.3045656 6.99615946 -4.3045656 6.99615946 -5 10 C-5.99 10 -6.98 10 -8 10 C-8 8.68 -8 7.36 -8 6 C-6.25 4.296875 -6.25 4.296875 -4 2.75 C-3.2575 2.22921875 -2.515 1.7084375 -1.75 1.171875 C-1.1725 0.78515625 -0.595 0.3984375 0 0 Z " fill="#43CFFA" transform="translate(453,387)"/>
<path d="M0 0 C3.83663072 1.34929464 6.65172569 3.07751025 9.8125 5.625 C10.99779297 6.57246094 10.99779297 6.57246094 12.20703125 7.5390625 C12.79871094 8.02117188 13.39039063 8.50328125 14 9 C13.67 9.66 13.34 10.32 13 11 C12.4225 10.525625 11.845 10.05125 11.25 9.5625 C9.15017215 7.8858133 9.15017215 7.8858133 6.875 7.5625 C5 7 5 7 3.9375 5.125 C3.628125 4.42375 3.31875 3.7225 3 3 C1.4587688 1.29078411 1.4587688 1.29078411 0 0 Z " fill="#9EF8DE" transform="translate(227,12)"/>
<path d="M0 0 C0 0.33 0 0.66 0 1 C-0.60328125 1.02578125 -1.2065625 1.0515625 -1.828125 1.078125 C-6.96300302 1.43375828 -6.96300302 1.43375828 -11.5 3.6875 C-13.30181397 6.46529653 -13.70242275 8.7266502 -14 12 C-14.33 12 -14.66 12 -15 12 C-15.47323944 4.90140845 -15.47323944 4.90140845 -13.6875 1.5 C-9.35603598 -0.91756131 -4.85001072 -0.30103515 0 0 Z " fill="#B6EAF4" transform="translate(306,2)"/>
<path d="M0 0 C0.66 0.33 1.32 0.66 2 1 C0.75160427 2.41808059 -0.49879221 3.83439995 -1.75 5.25 C-2.79414063 6.43335938 -2.79414063 6.43335938 -3.859375 7.640625 C-5.84586916 9.83011856 -7.89101308 11.92901285 -10 14 C-9.58181281 9.12114941 -7.55070071 7.22040297 -4 4 C-3.236875 3.236875 -2.47375 2.47375 -1.6875 1.6875 C-1.130625 1.130625 -0.57375 0.57375 0 0 Z " fill="#A5F6DA" transform="translate(135,156)"/>
<path d="M0 0 C3.25524265 3.02272532 5.61820737 6.25718301 8 10 C7 12 7 12 5 13 C4.67 11.02 4.34 9.04 4 7 C3.01 7 2.02 7 1 7 C0.67 4.69 0.34 2.38 0 0 Z " fill="#7DCCE4" transform="translate(456,98)"/>
<path d="M0 0 C3.43927579 1.2419607 6.25207819 2.55740284 9 5 C9 5.66 9 6.32 9 7 C5.62537285 6.45276317 3.91765 5.9451 1 4 C0.3125 1.875 0.3125 1.875 0 0 Z " fill="#93F1D2" transform="translate(172,449)"/>
<path d="M0 0 C0.66 0 1.32 0 2 0 C3.32229189 2.64458379 3.09677194 4.67761301 3.0625 7.625 C3.05347656 8.62789063 3.04445313 9.63078125 3.03515625 10.6640625 C3.02355469 11.43492187 3.01195312 12.20578125 3 13 C-0.01111938 8.48332093 -0.10067926 5.3360009 0 0 Z " fill="#7FD0E5" transform="translate(254,437)"/>
<path d="M0 0 C-0.8125 1.9375 -0.8125 1.9375 -2 4 C-2.99 4.33 -3.98 4.66 -5 5 C-5.33 5.99 -5.66 6.98 -6 8 C-6.99 8 -7.98 8 -9 8 C-7.47364599 4.11473526 -4.49771687 0 0 0 Z " fill="#53CBF1" transform="translate(438,409)"/>
<path d="M0 0 C0.99 0 1.98 0 3 0 C3 0.66 3 1.32 3 2 C2.01 2 1.02 2 0 2 C-0.103125 2.639375 -0.20625 3.27875 -0.3125 3.9375 C-0.539375 4.618125 -0.76625 5.29875 -1 6 C-1.99 6.33 -2.98 6.66 -4 7 C-4 7.66 -4 8.32 -4 9 C-5.32 9.33 -6.64 9.66 -8 10 C-7.3125 8.125 -7.3125 8.125 -6 6 C-5.154375 5.67 -4.30875 5.34 -3.4375 5 C-2.633125 4.67 -1.82875 4.34 -1 4 C-0.11306697 1.95894361 -0.11306697 1.95894361 0 0 Z " fill="#64ECBF" transform="translate(237,88)"/>
<path d="M0 0 C0.33 0 0.66 0 1 0 C3.29612756 11.52164009 3.29612756 11.52164009 3 17 C0.33339774 12.42868185 -1.28377871 7.27022971 -0.625 2 C-0.41875 1.34 -0.2125 0.68 0 0 Z " fill="#A9E5F2" transform="translate(499,195)"/>
<path d="M0 0 C0.99 0.495 0.99 0.495 2 1 C2.4140625 3.28515625 2.4140625 3.28515625 2.625 6.0625 C2.69976562 6.98160156 2.77453125 7.90070313 2.8515625 8.84765625 C2.92503906 9.91306641 2.92503906 9.91306641 3 11 C2.01 11 1.02 11 0 11 C0 7.37 0 3.74 0 0 Z " fill="#61C5EB" transform="translate(257,441)"/>
<path d="M0 0 C0.66 0.99 1.32 1.98 2 3 C-0.64 6.63 -3.28 10.26 -6 14 C-6.33 13.34 -6.66 12.68 -7 12 C-6.57847656 11.38511719 -6.15695312 10.77023437 -5.72265625 10.13671875 C-4.90087891 8.92435547 -4.90087891 8.92435547 -4.0625 7.6875 C-3.51722656 6.88699219 -2.97195313 6.08648437 -2.41015625 5.26171875 C-0.86162674 2.9741857 -0.86162674 2.9741857 0 0 Z " fill="#57CAF5" transform="translate(403,290)"/>
<path d="M0 0 C0.66 0 1.32 0 2 0 C5.6642613 3.85831875 7.60791281 7.64147506 8 13 C7.34 13 6.68 13 6 13 C4.02 8.71 2.04 4.42 0 0 Z " fill="#67C3DE" transform="translate(397,108)"/>
<path d="M0 0 C-5.36190101 2.61407872 -10.03435204 4.49228528 -16 5 C-14.54987453 2.09974906 -12.68687091 1.91293145 -9.6875 0.8125 C-8.72199219 0.44769531 -7.75648438 0.08289063 -6.76171875 -0.29296875 C-3.9652203 -1.008904 -2.66140462 -0.99249531 0 0 Z " fill="#61EEBE" transform="translate(173,16)"/>
<path d="M0 0 C6.52307692 0.61538462 6.52307692 0.61538462 8.9375 2.5625 C9.288125 3.036875 9.63875 3.51125 10 4 C7.69 4 5.38 4 3 4 C3 3.34 3 2.68 3 2 C2.01 2 1.02 2 0 2 C0 1.34 0 0.68 0 0 Z " fill="#9FF2DC" transform="translate(195,464)"/>
<path d="M0 0 C3.73884332 2.65654657 5.64978174 4.58110387 7 9 C4.28902773 8.62607279 3.17999533 8.18642373 1.25 6.1875 C0 4 0 4 0 0 Z " fill="#77EDC6" transform="translate(52,389)"/>
<path d="M0 0 C-0.66 1.65 -1.32 3.3 -2 5 C-4.97 5 -7.94 5 -11 5 C-3.5 0 -3.5 0 0 0 Z " fill="#83D5E9" transform="translate(323,368)"/>
<path d="M0 0 C0.66 0.33 1.32 0.66 2 1 C0.71372289 2.17260611 -0.57919783 3.3379283 -1.875 4.5 C-2.59429687 5.1496875 -3.31359375 5.799375 -4.0546875 6.46875 C-6 8 -6 8 -8 8 C-7.9375 6.25 -7.9375 6.25 -7 4 C-4.74876994 2.27481113 -2.59865097 1.23093993 0 0 Z " fill="#57C9F1" transform="translate(358,347)"/>
<path d="M0 0 C0.99 0.495 0.99 0.495 2 1 C3.55033393 5.80603519 3.0872355 11.00819059 3 16 C2.67 16 2.34 16 2 16 C2 13.36 2 10.72 2 8 C1.34 8 0.68 8 0 8 C0 5.36 0 2.72 0 0 Z " fill="#56C8ED" transform="translate(496,196)"/>
<path d="M0 0 C1.32 0.33 2.64 0.66 4 1 C0.7 3.97 -2.6 6.94 -6 10 C-6.33 9.34 -6.66 8.68 -7 8 C-6 5 -6 5 -2.9375 3.3125 C-1.968125 2.879375 -0.99875 2.44625 0 2 C0 1.34 0 0.68 0 0 Z " fill="#99F5D6" transform="translate(150,140)"/>
<path d="M0 0 C2.96404505 2.80804268 5.44499019 5.18315774 7 9 C5.35 9 3.7 9 2 9 C1.34 6.03 0.68 3.06 0 0 Z " fill="#81D0E4" transform="translate(442,80)"/>
<path d="M0 0 C0 3.30941204 -0.40339294 5.11090151 -2 8 C-4.625 8.8125 -4.625 8.8125 -7 9 C-5.44499019 5.18315774 -2.96404505 2.80804268 0 0 Z " fill="#84F0CD" transform="translate(71,73)"/>
<path d="M0 0 C3.98381075 2.16264012 6.88983545 4.71211176 10 8 C7.5625 7.625 7.5625 7.625 5 7 C4.67 6.34 4.34 5.68 4 5 C1.98330173 3.86649466 1.98330173 3.86649466 0 3 C0 2.01 0 1.02 0 0 Z " fill="#7ECEE2" transform="translate(408,48)"/>
<path d="M0 0 C5.19591612 0.44033187 8.66335081 0.88303339 13 4 C12.67 4.66 12.34 5.32 12 6 C11.01 5.34 10.02 4.68 9 4 C6.92703621 3.4192475 4.85052116 2.9949787 2.7421875 2.5625 C2.16726563 2.376875 1.59234375 2.19125 1 2 C0.67 1.34 0.34 0.68 0 0 Z " fill="#6ECFEB" transform="translate(320,29)"/>
<path d="M0 0 C9.59453303 2.89066059 9.59453303 2.89066059 13 6 C8.81474495 5.40210642 4.91147027 4.63735965 1 3 C0.67 2.01 0.34 1.02 0 0 Z " fill="#81D1E7" transform="translate(363,22)"/>
<path d="M0 0 C1.65 0.33 3.3 0.66 5 1 C2.06626269 2.95582488 -0.78216298 4.56224304 -4 6 C-4.66 5.67 -5.32 5.34 -6 5 C-4.6875 3.5 -4.6875 3.5 -3 2 C-2.01 2 -1.02 2 0 2 C0 1.34 0 0.68 0 0 Z " fill="#7ACAE7" transform="translate(361,462)"/>
<path d="M0 0 C-3.01447835 2.57075841 -5.35979771 3.52207066 -9.25 4.1875 C-10.58804687 4.42533203 -10.58804687 4.42533203 -11.953125 4.66796875 C-12.96632813 4.83232422 -12.96632813 4.83232422 -14 5 C-10.7547422 0.1321133 -5.61593946 -0.34035997 0 0 Z " fill="#62C9E8" transform="translate(386,453)"/>
<path d="M0 0 C0.33 0.66 0.66 1.32 1 2 C0.67 2.66 0.34 3.32 0 4 C-0.66 4 -1.32 4 -2 4 C-2.2165625 5.175625 -2.2165625 5.175625 -2.4375 6.375 C-3 9 -3 9 -4 11 C-4.66 11 -5.32 11 -6 11 C-6 10.01 -6 9.02 -6 8 C-5.34 8 -4.68 8 -4 8 C-4.0825 7.236875 -4.165 6.47375 -4.25 5.6875 C-4 3 -4 3 -2 1.1875 C-1.34 0.795625 -0.68 0.40375 0 0 Z " fill="#55C9ED" transform="translate(467,369)"/>
<path d="M0 0 C1.98 0.495 1.98 0.495 4 1 C3.67 2.65 3.34 4.3 3 6 C2.34 6 1.68 6 1 6 C0.34 6.66 -0.32 7.32 -1 8 C-0.67 5.36 -0.34 2.72 0 0 Z " fill="#70CDEE" transform="translate(473,355)"/>
<path d="M0 0 C0.66 0.33 1.32 0.66 2 1 C2.59355614 3.64860427 2.74209269 6.29197322 3 9 C2.38125 8.2884375 2.38125 8.2884375 1.75 7.5625 C-0.182185 5.83733482 -1.48192275 5.43415125 -4 5 C-3.01 4.67 -2.02 4.34 -1 4 C-0.26676204 1.98491642 -0.26676204 1.98491642 0 0 Z " fill="#56FAC5" transform="translate(58,92)"/>
<path d="M0 0 C0.66 0 1.32 0 2 0 C2.83848804 1.45537568 3.67063934 2.91440373 4.5 4.375 C5.19609375 5.59316406 5.19609375 5.59316406 5.90625 6.8359375 C7 9 7 9 7 11 C6.01 10.67 5.02 10.34 4 10 C3.67 8.35 3.34 6.7 3 5 C2.34 5 1.68 5 1 5 C0.67 3.35 0.34 1.7 0 0 Z " fill="#5FECBC" transform="translate(39,368)"/>
<path d="M0 0 C5.66153846 1.47692308 5.66153846 1.47692308 7.375 4.125 C7.684375 5.053125 7.684375 5.053125 8 6 C7.01 6.33 6.02 6.66 5 7 C3.35 4.69 1.7 2.38 0 0 Z " fill="#57CAF7" transform="translate(365,61)"/>
<path d="M0 0 C4.83256305 0.41421969 6.82679218 2.46413986 10 6 C6.62972148 6 5.93297304 5.50175992 3.3125 3.5625 C2.68988281 3.11003906 2.06726563 2.65757813 1.42578125 2.19140625 C0.95527344 1.79824219 0.48476563 1.40507813 0 1 C0 0.67 0 0.34 0 0 Z " fill="#8BD3E5" transform="translate(325,32)"/>
<path d="M0 0 C2.64 0 5.28 0 8 0 C8 0.66 8 1.32 8 2 C9.32 2.66 10.64 3.32 12 4 C7.80530429 3.40075776 3.99000166 2.42500059 0 1 C0 0.67 0 0.34 0 0 Z " fill="#89EFCE" transform="translate(157,472)"/>
<path d="M0 0 C0.99 0 1.98 0 3 0 C3 0.66 3 1.32 3 2 C3.969375 2.12375 4.93875 2.2475 5.9375 2.375 C7.4534375 2.684375 7.4534375 2.684375 9 3 C9.33 3.66 9.66 4.32 10 5 C7.03 4.67 4.06 4.34 1 4 C0.67 2.68 0.34 1.36 0 0 Z " fill="#59F3BF" transform="translate(195,466)"/>
<path d="M0 0 C3.63094642 2.64960955 5.89851796 5.01824456 8 9 C4.68470727 8.01437243 3.25050621 7.34552581 1.1875 4.5 C0 2 0 2 0 0 Z " fill="#A6F9E0" transform="translate(132,411)"/>
<path d="M0 0 C0.99 0 1.98 0 3 0 C1.50902342 3.7952131 -0.75700849 5.61042731 -4 8 C-3.40353695 4.65980694 -2.31705841 2.49529367 0 0 Z " fill="#70C9E3" transform="translate(442,404)"/>
<path d="M0 0 C1.07310858 3.27185553 0.89263102 5.42947592 0.0625 8.75 C-0.22947266 9.94882812 -0.22947266 9.94882812 -0.52734375 11.171875 C-0.68332031 11.77515625 -0.83929688 12.3784375 -1 13 C-1.66 13 -2.32 13 -3 13 C-3.38281159 7.76824163 -2.21854707 4.62197306 0 0 Z " fill="#56C9F6" transform="translate(411,270)"/>
<path d="M0 0 C2.64465038 3.1254959 3.84414715 6.08788267 5 10 C4.01 10 3.02 10 2 10 C0.68373308 6.38026598 0 3.90432869 0 0 Z " fill="#89DBEE" transform="translate(478,134)"/>
<path d="M0 0 C1.5 1.1875 1.5 1.1875 3 3 C3.1875 5.6875 3.1875 5.6875 3 8 C3.99 8 4.98 8 6 8 C6 8.66 6 9.32 6 10 C4.125 9.8125 4.125 9.8125 2 9 C0.21715186 5.70173093 0 3.8225249 0 0 Z " fill="#59C5E5" transform="translate(454,97)"/>
<path d="M0 0 C2.70931419 0.15481795 4.46584039 0.48172081 6.4453125 2.40234375 C7.67679642 3.89771708 8.8429837 5.4462924 10 7 C5.56541027 5.6062718 3.12621626 3.39417765 0 0 Z " fill="#7DD2EA" transform="translate(424,64)"/>
<path d="M0 0 C2.5 2.3125 2.5 2.3125 5 5 C5 5.99 5 6.98 5 8 C4.01 8.33 3.02 8.66 2 9 C1.34 6.03 0.68 3.06 0 0 Z " fill="#84F6D1" transform="translate(241,23)"/>
<path d="M0 0 C2.49361571 1.20381448 4.68143083 2.45428722 7 4 C6.67 4.99 6.34 5.98 6 7 C1.2 4.53846154 1.2 4.53846154 0.1875 1.8125 C0.125625 1.214375 0.06375 0.61625 0 0 Z " fill="#65EFC5" transform="translate(166,446)"/>
<path d="M0 0 C1.48285242 0.95262034 2.96118201 1.91228405 4.4375 2.875 C5.67306641 3.67550781 5.67306641 3.67550781 6.93359375 4.4921875 C9 6 9 6 10 8 C9.1646875 7.566875 9.1646875 7.566875 8.3125 7.125 C5.98395537 5.92661791 5.98395537 5.92661791 3.3125 5.125 C2.549375 4.75375 1.78625 4.3825 1 4 C0.35546875 1.9296875 0.35546875 1.9296875 0 0 Z " fill="#A1F7DF" transform="translate(162,441)"/>
<path d="M0 0 C1.1549921 0.73581742 2.29874185 1.48930039 3.4375 2.25 C4.07558594 2.66765625 4.71367187 3.0853125 5.37109375 3.515625 C7.29902057 5.27248877 7.61479436 6.46089803 8 9 C6 9 6 9 4.4921875 7.5390625 C3.95851562 6.90742188 3.42484375 6.27578125 2.875 5.625 C2.06675781 4.68527344 2.06675781 4.68527344 1.2421875 3.7265625 C0 2 0 2 0 0 Z " fill="#6EF0C4" transform="translate(155,436)"/>
<path d="M0 0 C4.31392226 0.4793247 6.16569547 1.7457985 9 5 C2.25 3.375 2.25 3.375 0 0 Z " fill="#6BEEBF" transform="translate(223,12)"/>
<path d="M0 0 C0.66 0.33 1.32 0.66 2 1 C-0.3125 3.5 -0.3125 3.5 -3 6 C-3.99 6 -4.98 6 -6 6 C-4 4 -2 2 0 0 Z " fill="#84CEE4" transform="translate(277,389)"/>
<path d="M0 0 C0.99 0.495 0.99 0.495 2 1 C2 1.66 2 2.32 2 3 C2.99 3 3.98 3 5 3 C5.66 4.65 6.32 6.3 7 8 C5.1875 7.8125 5.1875 7.8125 3 7 C0 2.82142857 0 2.82142857 0 0 Z " fill="#87EFCD" transform="translate(113,387)"/>
<path d="M0 0 C-0.33 1.32 -0.66 2.64 -1 4 C-2.65 4.33 -4.3 4.66 -6 5 C-5.625 3.0625 -5.625 3.0625 -5 1 C-3 0 -3 0 0 0 Z " fill="#73C9EB" transform="translate(301,378)"/>
<path d="M0 0 C0 4.38968456 -2.12805101 5.76905739 -5 9 C-5.99 8.67 -6.98 8.34 -8 8 C-5.36 5.36 -2.72 2.72 0 0 Z " fill="#64C0E0" transform="translate(381,322)"/>
<path d="M0 0 C0.33 0.66 0.66 1.32 1 2 C-0.28062485 3.7074998 -1.61767557 5.37373596 -3 7 C-3.66 7 -4.32 7 -5 7 C-4.1875 4.0625 -4.1875 4.0625 -3 1 C-2.01 0.67 -1.02 0.34 0 0 Z " fill="#6BD1EE" transform="translate(407,281)"/>
<path d="M0 0 C1.65 0 3.3 0 5 0 C5 0.66 5 1.32 5 2 C-0.75 5 -0.75 5 -3 5 C-3 4.34 -3 3.68 -3 3 C-2.01 3 -1.02 3 0 3 C0 2.01 0 1.02 0 0 Z " fill="#A6F6DD" transform="translate(178,121)"/>
<path d="M0 0 C0.33 0.66 0.66 1.32 1 2 C0.525625 2.5775 0.05125 3.155 -0.4375 3.75 C-1.9484867 5.92582084 -2.54036151 7.42602448 -3 10 C-3.99 10 -4.98 10 -6 10 C-4.6302836 6.00499382 -2.74277578 3.19990508 0 0 Z " fill="#95F5D3" transform="translate(53,94)"/>
<path d="M0 0 C0.99 0 1.98 0 3 0 C2.67 1.32 2.34 2.64 2 4 C0.68 4.33 -0.64 4.66 -2 5 C-1.125 1.125 -1.125 1.125 0 0 Z " fill="#6AEFBE" transform="translate(74,70)"/>
<path d="M0 0 C3.93673644 1.31224548 6.22719294 2.91910327 9 6 C2.35384615 4.52307692 2.35384615 4.52307692 0.5625 1.875 C0.376875 1.25625 0.19125 0.6375 0 0 Z " fill="#84CEE7" transform="translate(392,37)"/>
<path d="M0 0 C4 0 4 0 5.75 1.375 C7 3 7 3 7 5 C4.0625 4.1875 4.0625 4.1875 1 3 C0.67 2.01 0.34 1.02 0 0 Z " fill="#95EFD2" transform="translate(121,454)"/>
<path d="M0 0 C0.33 0.66 0.66 1.32 1 2 C1.66 2 2.32 2 3 2 C3.33 3.32 3.66 4.64 4 6 C3.67 6 3.34 6 3 6 C2.67 7.65 2.34 9.3 2 11 C1.67 11 1.34 11 1 11 C0.67 7.37 0.34 3.74 0 0 Z " fill="#87E0F4" transform="translate(417,164)"/>
<path d="M0 0 C1.98 0.66 3.96 1.32 6 2 C5.01 2.66 4.02 3.32 3 4 C1.80767387 6.05003955 1.80767387 6.05003955 1 8 C1 6.02 1 4.04 1 2 C0.34 1.67 -0.32 1.34 -1 1 C-0.67 0.67 -0.34 0.34 0 0 Z " fill="#59F4C2" transform="translate(135,148)"/>
<path d="M0 0 C0.721875 0.12375 1.44375 0.2475 2.1875 0.375 C-0.83137244 3.85831435 -3.38159529 5.16657144 -7.8125 6.375 C-3.50480769 0.46730769 -3.50480769 0.46730769 0 0 Z " fill="#A5F9E1" transform="translate(230.8125,96.625)"/>
<path d="M0 0 C-0.5625 1.9375 -0.5625 1.9375 -2 4 C-5.625 4.75 -5.625 4.75 -9 5 C-2.87096774 0 -2.87096774 0 0 0 Z " fill="#8AF1D6" transform="translate(131,30)"/>
<path d="M0 0 C0 4.38968456 -2.12805101 5.76905739 -5 9 C-5.33 8.01 -5.66 7.02 -6 6 C-4.02 4.02 -2.04 2.04 0 0 Z " fill="#61BFDE" transform="translate(269,397)"/>
<path d="M0 0 C0.66 0.33 1.32 0.66 2 1 C0.35 2.65 -1.3 4.3 -3 6 C-3.66 5.01 -4.32 4.02 -5 3 C-2.625 1.4375 -2.625 1.4375 0 0 Z " fill="#85CDEA" transform="translate(284,385)"/>
<path d="M0 0 C-0.33 2.31 -0.66 4.62 -1 7 C-1.66 7 -2.32 7 -3 7 C-3 5.02 -3 3.04 -3 1 C-1 0 -1 0 0 0 Z " fill="#60C0E4" transform="translate(487,329)"/>
<path d="M0 0 C0.33 0 0.66 0 1 0 C1.17835515 4.54805635 0.99785435 7.8794254 -1 12 C-1.33 12 -1.66 12 -2 12 C-2.21278058 7.53160785 -1.59138085 4.17737474 0 0 Z " fill="#98DCEF" transform="translate(501,276)"/>
<path d="M0 0 C1.9375 0.75 1.9375 0.75 4 2 C4.75 4.125 4.75 4.125 5 6 C3.68 6 2.36 6 1 6 C0.67 4.02 0.34 2.04 0 0 Z " fill="#78D2F2" transform="translate(412,144)"/>
</svg>
